<?xml version="1.0" encoding="utf-8"?>
<!-- Generator: Adobe Illustrator 24.3.0, SVG Export Plug-In . SVG Version: 6.00 Build 0)  -->
<svg version="1.1" id="Layer_1" xmlns="http://www.w3.org/2000/svg" xmlns:xlink="http://www.w3.org/1999/xlink" x="0px" y="0px"
	 viewBox="0 0 3600 2000" style="enable-background:new 0 0 3600 2000;" xml:space="preserve">
<style type="text/css">
	.st0{fill:#B983FF;}
	.st1{fill:#A16EE7;}
	.st2{fill:#31DAE7;}
	.st3{fill:#FFEEE0;}
	.st4{font-family:'ArialMT';}
	.st5{font-size:71.054px;}
	.st6{letter-spacing:6;}
	.st7{font-size:41.4256px;}
	.st8{letter-spacing:4;}
	.st9{fill:#ADECFF;}
	.st10{fill:#611D00;}
	.st11{fill:#FFE64B;}
	.st12{fill:#EDD646;}
	.st13{fill:#FFA84B;}
	.st14{fill:#6B4720;}
	.st15{fill:#FF5C25;}
	.st16{fill:#8F8F8F;}
	.st17{fill:#BDEC9C;}
	.st18{fill:#808080;}
	.st19{fill:#F8C94F;}
	.st20{fill:#A8A8A8;}
	.st21{fill:#FFB128;}
	.st22{fill:#FFAD6C;}
	.st23{font-size:36.8091px;}
	.st24{letter-spacing:2;}
	.st25{font-size:21.459px;}
	.st26{letter-spacing:1;}
	.st27{fill:#8B5DD0;}
	.st28{fill:#FFFFFF;}
	.st29{fill:#F36B80;}
	.st30{fill:#F2F2F2;}
	.st31{fill:#FFB3C5;}
	.st32{fill:#E25A74;}
	.st33{fill:#EA94AD;}
	.st34{fill:#F7A491;}
	.st35{fill:#F47458;}
	.st36{fill:#472A6A;}
	.st37{fill:#5C407B;}
	.st38{fill:#34BED1;}
	.st39{fill:#E1DDE7;}
	.st40{clip-path:url(#SVGID_2_);fill:#EA6060;}
	.st41{clip-path:url(#SVGID_4_);fill:#F0D632;}
</style>
<g id="Ñëîé_2">
	<g>
		<rect x="0.2" y="5" class="st0" width="3600" height="2000"/>
		<path class="st1" d="M0.2,1678.3c304.9,0,630.9,208.5,664,326.7c-263.5,0-664,0-664,0L0.2,1678.3L0.2,1678.3z"/>
		<path class="st1" d="M1754.2,2005c-30-820,862-750,677.9-1261.1C2274.8,307.1,1413.2,511,1277.2,5c734,0,2323,0,2323,0v2000
			H1754.2z"/>
		<path class="st2" d="M3623.2-31h-491.5c-33.9,53.3-53.5,116.6-53.5,184.5c0,190.3,154.2,344.5,344.5,344.5
			c74.8,0,144-23.8,200.5-64.3V-31z"/>
	</g>
	<g>
		<text transform="matrix(0.8135 -0.5815 0.5815 0.8135 2148.3777 413.2421)" class="st3 st4 st5 st6">e=Mc</text>
		<text transform="matrix(0.8136 -0.5815 0.5815 0.8136 2293.5249 280.3988)" class="st3 st4 st7 st8">2</text>
	</g>
	<g>
		<g>
			<g>
				<path class="st9" d="M731.3,1076.4c1.8-2.8,4.3-6.5,6-8.7c2.9-3.6,5.1-4.8,9-5.4c9.2-1.1,31-3.5,47-27.6
					c14.5-21.9,4.9-31.7-0.3-35.1c-8.1-5.4-20-5.3-30.4,10.4c-4.9,7.4-8.6,18.6-5.1,20.9c0.7,0.5,1.4,0.5,1.8,0.7
					c1,0.7,1.1,1.7,0.5,2.6c-1.8,2.8-9.3,5-14.8,1.4c-7.4-4.9-3-22.8,4.5-34.2c15.4-23.3,36.9-23.9,51.7-14.1
					c18.6,12.3,19.3,34.8,5.1,56.4c-16,24.1-36.2,28.8-52.5,31.9c-3.1,0.6-4.9,2.9-6.5,5.4l-4.4,6.7
					C737.6,1095.2,726.8,1083.1,731.3,1076.4z M731.5,1108.2c-2.8,4.3-9,5.7-13.6,2.6c-4.7-3.1-5.9-9.4-3.1-13.7
					c3.1-4.7,9.3-5.8,13.9-2.7C733.3,1097.6,734.6,1103.6,731.5,1108.2z"/>
			</g>
		</g>
		<path class="st10" d="M813.5,995.3c-10.2-15.7-32.7-20.7-48.5-10.6c-13.2,8.4-24.9,24.7-23.4,41c0.6,6.8,4.2,14.2,12.2,13.5
			c9.4-0.8,6-10.5,6.8-16.7c1.2-9.8,12.6-21.8,22.4-23.6c15.3-2.9,18.2,20.8,12.2,30c-0.1,0.2,0,0.3,0.1,0.4c-4,8-11,15.6-18.4,20.1
			c-2.3,1.4-4.9,2.5-7.6,3.4c2.9-1.5,5.6-3.2,8.3-5.1c5.9-4,10-9.2,15-14.2c0.1-0.1-0.1-0.4-0.2-0.2c-6,5.5-11,11.1-18,15.4
			c-5.3,3.2-10.7,5.2-16.4,7.1c-12.2,2.9-24.2,6.1-27.6,19.9c-1.3,5.5,0.1,14.1,6.8,15.5c9,1.8,12.1-10.2,16.8-14.9
			c4-4,11.4-4.7,16.7-6.4c4.7-1.5,9.3-3.2,13.7-5.4c9-4.3,15.8-10.7,22-18.4C818.4,1031.5,824.6,1012.5,813.5,995.3z M817.2,1018.6
			c0.2-5.3-0.6-10.9-2.1-15.7C817,1007.9,817.7,1013.2,817.2,1018.6z M768.8,1006.5c-5.2,4.8-9.6,9.9-10.3,17.2
			c-0.2,1.8,0.1,4.1,0.2,6.2c-0.6-1.7-1.5-3.3-1.3-5.2c0.2-3.9,2.7-7.6,4.6-10.9c4.5-7.7,12.2-18.1,22.4-16.7
			c1.8,0.2,3.4,0.7,4.8,1.4c-1.2-0.4-2.5-0.7-3.9-0.6C778.9,998,773.2,1002.5,768.8,1006.5z M782.7,1047.5
			c6.2-5.2,12-12.2,15.2-19.7c3.1-7.1,3.7-17.2-0.4-24.1c-3.8-6.5-12.1-10.3-19.4-8c-7.6,2.3-13.2,9.6-16.9,16.2
			c-1.9,3.4-4.3,7.3-5,11.2c-0.7,4,2.8,8.3,1.3,11.9c-0.6,0.9-1.6,1.5-3,1.9c-4,1-6.9-1-8.7-4c0-2.6-1.3-5.4-1.8-7.9
			c-0.2-1.2-0.3-2.5-0.4-3.8c0.3,0,0.5-0.2,0.4-0.6c-0.7-3.1,1-6.5,2-9.4c1.5-4.4,3.6-8,6.4-11.6c4.6-6,10-11.7,16.8-15.2
			c13.3-6.7,33.7-1.2,41.4,11.8c3.9,6.6,5.1,16.6,4.6,24.2c-0.6,8.7-5.9,16.4-11,23.2c-5.7,7.6-13.4,12.8-21.9,16.8
			c-7,3.4-14.7,5.2-21.7,8.7c-3.3,1.7-5.7,3.6-7.8,5.9c-0.6,0.6-1.2,1.2-1.7,1.9c-0.3,0.3-0.5,0.7-0.7,1.1c-1,1.3-2,2.6-3,4
			c-3.1,4.1-8.5,9-13.3,4c-1-1-1.6-2.3-2-3.7c-0.3-1.6-0.3-3.3-0.2-4.9c3.3-12.3,14.5-16.1,25.4-19.8c0.6-0.1,1.2-0.3,1.9-0.4
			C767.7,1055.3,775.8,1053.3,782.7,1047.5z M735.3,1088.9L735.3,1088.9c1.4,0.6,2.7,0.9,3.9,0.8
			C737.6,1089.9,736.3,1089.6,735.3,1088.9z M776.3,1065.9c-4.3,1.7-9.9,2.7-14.9,4.5c3.6-1.8,7.4-3.1,11.1-4.5
			c8.6-3.2,17.5-7.1,24.8-12.9C791.2,1058.7,784.3,1062.7,776.3,1065.9z"/>
		<path class="st10" d="M735.7,1097.2c-2.6-3.8-7-4.9-11.1-3.9c-6.3-0.2-14.2,3.1-12,10.5c0.8,2.8,3,5.2,5.7,6.8
			c0.4,0.5,0.8,1,1.3,1.4c2.4,2.2,4.8,1.9,7.1,0.9c0.6,0,1.2-0.1,1.8-0.2C735.5,1111.2,740,1103.5,735.7,1097.2z M719.9,1095.4
			c-1.4,1-2.6,2.4-3.4,4c-0.9,1.7-1,3.8-0.6,5.8C712.9,1101,715.7,1097.3,719.9,1095.4z M733,1107.6c-3.9,4.3-10.2,3.4-14.5,0.2
			c-1.9-4.3-1-8.7,3.4-11.1c3.9-2.1,9-2.1,11.7,1.8C735.7,1101.5,735.3,1105,733,1107.6z"/>
	</g>
	<g>
		<g>
			<polygon class="st11" points="1885.6,608.1 1852.8,617.8 1862.7,585.1 1985.9,462.4 2008.9,485.4 			"/>
		</g>
		<g>
			
				<rect x="1848.8" y="529.3" transform="matrix(0.7087 -0.7055 0.7055 0.7087 186.2757 1521.5809)" class="st12" width="173.9" height="11.9"/>
		</g>
		<g>
			<path class="st13" d="M1885.6,608.1l0.3-3c0.2-1.9-1.5-3.9-3.5-4l-0.8-0.1c-1.8-0.1-3.4-1.8-3.5-3.5l-0.1-1.3
				c-0.1-1.8-1.7-3.4-3.5-3.5l-1-0.1c-1.9-0.1-3.6-1.9-3.5-3.8l0,0c0-1.9-1.8-3.8-3.7-3.8h-3.7l-9.9,32.8L1885.6,608.1z"/>
		</g>
		<g>
			<path class="st14" d="M1855.5,609l-2.7,8.8l8.9-2.6c-0.6-1.3-1.5-2.5-2.6-3.6C1858,610.5,1856.7,609.6,1855.5,609z"/>
		</g>
		<g>
			<path class="st15" d="M2026.6,459l-14.1-14.2c-2.4-2.4-6.4-2.4-8.8,0l-17.7,17.6l22.9,23l17.7-17.6
				C2029,465.3,2029,461.4,2026.6,459z"/>
		</g>
		<g>
			
				<rect x="1995.6" y="453.4" transform="matrix(0.7087 -0.7055 0.7055 0.7087 251.7135 1549.0101)" class="st16" width="12.1" height="32.5"/>
		</g>
		<g>
			<path class="st10" d="M1852,618.7c-0.4-0.4-0.6-1-0.5-1.5l9.9-32.8c0-0.2,0.1-0.3,0.2-0.4l139.5-138.9c3.7-3.7,10.4-2.9,15.1,1.8
				l8.2,8.3c4.6,4.6,5.4,11.4,1.7,15.1l-139.5,138.9c-0.1,0.1-0.3,0.2-0.4,0.2l-32.8,9.7C1853,619.3,1852.4,619.1,1852,618.7z
				 M1863.9,586l-9,29.8l29.8-8.9l139.4-138.7c2.8-2.8,2.2-7.8-1.3-11.3l-8.2-8.3c-3.5-3.5-8.5-4.1-11.3-1.3L1863.9,586z
				 M1885.6,608.1L1885.6,608.1L1885.6,608.1z"/>
		</g>
		<g>
			<g>
				<path class="st10" d="M1994.6,454.7c7.8,7.5,14.9,15.3,21.8,23.6c0.7,0.9,1.7-0.1,1-1c-6.6-8.2-14.4-16.1-22.4-23.1
					C1994.6,453.8,1994.2,454.3,1994.6,454.7L1994.6,454.7z"/>
			</g>
		</g>
		<g>
			<g>
				<path class="st10" d="M1996.3,453.5c3.8-2.5,7.5-5.4,12.6-5.8c5.9-0.4,12.4,3.6,14.6,9.9c2.4,6.6-2.7,11.2-5.8,15.3
					c-3,3.9-6.6,7.7-9,12c-0.2,0.4,0.4,0.9,0.7,0.6c3-2.9,5.2-6.6,7.7-9.9c2.1-2.7,4.4-5.4,6.1-8.4c2-3.8,2.4-8.3-0.7-13
					c-7.8-11.8-20.1-6.6-26.5-1.1C1995.9,453.3,1996.2,453.6,1996.3,453.5L1996.3,453.5z"/>
			</g>
		</g>
		<g>
			<g>
				<path class="st10" d="M1985.4,462.7c2.5,4.2,6.7,7.8,10.2,11.3c4,4,8,8.1,12,12.1c1.2,1.2,2.6-0.3,1.4-1.4c-4-4-8-8-12.1-12
					c-3.5-3.5-7.1-7.7-11.3-10.2C1985.5,462.4,1985.3,462.5,1985.4,462.7L1985.4,462.7z"/>
			</g>
		</g>
		<g>
			<g>
				<path class="st10" d="M1991.2,456.6c7.2,8.2,15.1,15.9,22.4,24c0.9,1,2.2-0.2,1.2-1.2c-7.3-8.1-14.9-16.2-23.3-23.1
					C1991.2,456.1,1990.9,456.4,1991.2,456.6L1991.2,456.6z"/>
			</g>
		</g>
		<g>
			<g>
				<path class="st10" d="M1989.5,459.1c2.9,4,6.7,7.6,10.2,11.1c3.9,4,7.8,8.1,11.9,11.9c0.9,0.8,1.9-0.2,1.1-1.1
					c-3.8-4.1-7.9-8-11.8-12c-3.5-3.5-7-7.4-11-10.3C1989.6,458.5,1989.3,458.8,1989.5,459.1L1989.5,459.1z"/>
			</g>
		</g>
		<g>
			<g>
				<path class="st10" d="M1987.3,460.8c6.5,8.3,14.5,15.8,22.1,23.1c0.9,0.9,2-0.2,1.1-1.1c-7.7-7.3-14.8-15.3-22.5-22.5
					C1987.5,459.9,1986.9,460.3,1987.3,460.8L1987.3,460.8z"/>
			</g>
		</g>
		<g>
			<g>
				<g>
					<path class="st10" d="M1988.1,468.1c-0.4-0.8-1-1.5-1.6-2.2s-1.2-1.6-1.9-2c-0.3-0.2-0.7,0-0.6,0.4c0.3,0.8,1.1,1.4,1.7,2.1
						c0.7,0.7,1.3,1.4,2.2,1.9C1988.1,468.6,1988.2,468.3,1988.1,468.1L1988.1,468.1z"/>
				</g>
			</g>
			<g>
				<g>
					<path class="st10" d="M1987.7,470.7c-1.4-1.7-2.8-3.3-4.4-4.9c-0.6-0.6-1.3,0.1-0.7,0.7c1.6,1.5,3.2,3,4.9,4.4
						C1987.7,471.1,1987.9,470.9,1987.7,470.7L1987.7,470.7z"/>
				</g>
			</g>
			<g>
				<g>
					<path class="st10" d="M1986.1,472c-0.8-1.1-1.8-2.2-2.9-3.1c-0.9-0.8-1.9-1.7-3.1-1.9c-0.4-0.1-0.7,0.4-0.4,0.8
						c0.7,1,1.8,1.4,2.8,2.1c1.1,0.8,2.2,1.6,3.3,2.4C1986,472.3,1986.2,472.1,1986.1,472L1986.1,472z"/>
				</g>
			</g>
			<g>
				<g>
					<path class="st10" d="M1984.1,472.9c-0.8-0.8-1.6-1.6-2.4-2.4c-0.7-0.6-1.3-1.3-2.2-1.4c-0.4-0.1-0.6,0.4-0.4,0.7
						c0.4,0.9,1.3,1.3,2.1,1.8c0.9,0.6,1.8,1.1,2.8,1.6C1984.1,473.4,1984.3,473.1,1984.1,472.9L1984.1,472.9z"/>
				</g>
			</g>
			<g>
				<g>
					<path class="st10" d="M1980.8,473.5c-0.9-1-1.8-1.9-2.8-2.7c-0.8-0.6-1.6,0.5-0.8,1.1c1,0.8,2.1,1.4,3.3,2
						C1980.8,474.1,1981,473.8,1980.8,473.5L1980.8,473.5z"/>
				</g>
			</g>
			<g>
				<g>
					<path class="st10" d="M1979.6,476c-1.2-1.3-2.5-3.2-4-4.1c-0.5-0.3-1.2,0.2-0.7,0.7c1.1,1.5,3.1,2.6,4.5,3.7
						C1979.6,476.6,1979.8,476.2,1979.6,476L1979.6,476z"/>
				</g>
			</g>
			<g>
				<g>
					<path class="st10" d="M1976.5,476c-0.4-0.8-1-1.3-1.6-1.9c-0.8-0.8-1.7,0.3-0.7,1c0.7,0.5,1.3,1,2.1,1.2
						C1976.5,476.4,1976.6,476.2,1976.5,476L1976.5,476z"/>
				</g>
			</g>
			<g>
				<g>
					<path class="st10" d="M1975.9,478c-0.4-0.6-2.3-3.3-3.1-2.3c-0.7,1,2.2,2.3,2.8,2.7C1975.9,478.4,1976,478.2,1975.9,478
						L1975.9,478z"/>
				</g>
			</g>
			<g>
				<g>
					<path class="st10" d="M1974.4,480.8c-0.4-0.6-0.8-1.1-1.2-1.7c-0.2-0.3-0.4-0.5-0.6-0.8c-0.3-0.4-0.6-0.6-1-0.9
						c-0.7-0.6-1.4,0.1-0.8,0.8c0.3,0.4,0.5,0.6,0.9,1c0.2,0.2,0.5,0.4,0.7,0.6c0.5,0.4,1.1,0.8,1.7,1.2
						C1974.3,481.3,1974.6,481.1,1974.4,480.8L1974.4,480.8z"/>
				</g>
			</g>
			<g>
				<g>
					<path class="st10" d="M1972,481.4c-0.4-0.8-1.1-1.6-1.7-2.4c-0.7-0.8-1.7,0.2-0.9,0.9c0.7,0.6,1.5,1.3,2.3,1.7
						C1971.9,481.8,1972.1,481.6,1972,481.4L1972,481.4z"/>
				</g>
			</g>
			<g>
				<g>
					<path class="st10" d="M1970.7,482.6c-1-1-2-2.2-3.2-2.8c-0.7-0.3-0.9,0.5-0.5,1c0.8,1,2.3,1.7,3.4,2.3
						C1970.7,483.2,1971,482.9,1970.7,482.6L1970.7,482.6z"/>
				</g>
			</g>
			<g>
				<g>
					<path class="st10" d="M1968.1,483.3c-0.6-0.5-1.2-1.3-1.9-1.6c-0.6-0.2-1,0.5-0.5,0.9c0.6,0.6,1.5,0.7,2.2,1
						C1968.1,483.8,1968.3,483.5,1968.1,483.3L1968.1,483.3z"/>
				</g>
			</g>
		</g>
		<g>
			<g>
				<g>
					<path class="st10" d="M1968.6,487.5c-0.4-0.8-1-1.5-1.6-2.2s-1.2-1.6-1.9-2c-0.3-0.2-0.7,0-0.6,0.4c0.3,0.8,1.1,1.4,1.7,2.1
						c0.7,0.7,1.3,1.4,2.2,1.9C1968.5,488,1968.7,487.7,1968.6,487.5L1968.6,487.5z"/>
				</g>
			</g>
			<g>
				<g>
					<path class="st10" d="M1968.2,490.1c-1.4-1.7-2.8-3.3-4.4-4.9c-0.6-0.6-1.3,0.1-0.7,0.7c1.6,1.5,3.2,3,4.9,4.4
						C1968.2,490.5,1968.4,490.3,1968.2,490.1L1968.2,490.1z"/>
				</g>
			</g>
			<g>
				<g>
					<path class="st10" d="M1966.6,491.4c-0.8-1.1-1.8-2.2-2.9-3.1c-0.9-0.8-1.9-1.7-3.1-1.9c-0.4-0.1-0.7,0.4-0.4,0.8
						c0.7,1,1.8,1.4,2.8,2.1c1.1,0.8,2.2,1.6,3.3,2.4C1966.5,491.8,1966.7,491.5,1966.6,491.4L1966.6,491.4z"/>
				</g>
			</g>
			<g>
				<g>
					<path class="st10" d="M1964.6,492.4c-0.8-0.8-1.6-1.6-2.4-2.4c-0.7-0.6-1.3-1.3-2.2-1.4c-0.4-0.1-0.6,0.4-0.4,0.7
						c0.4,0.9,1.3,1.3,2.1,1.8c0.9,0.6,1.8,1.1,2.8,1.6C1964.6,492.8,1964.8,492.6,1964.6,492.4L1964.6,492.4z"/>
				</g>
			</g>
			<g>
				<g>
					<path class="st10" d="M1961.3,492.9c-0.9-1-1.8-1.9-2.8-2.7c-0.8-0.6-1.6,0.5-0.8,1.1c1,0.8,2.1,1.4,3.3,2
						C1961.3,493.5,1961.5,493.2,1961.3,492.9L1961.3,492.9z"/>
				</g>
			</g>
			<g>
				<g>
					<path class="st10" d="M1960.1,495.4c-1.2-1.3-2.5-3.2-4-4.1c-0.5-0.3-1.2,0.2-0.7,0.7c1.1,1.5,3.1,2.6,4.5,3.7
						C1960.1,496,1960.3,495.7,1960.1,495.4L1960.1,495.4z"/>
				</g>
			</g>
			<g>
				<g>
					<path class="st10" d="M1957,495.4c-0.4-0.8-1-1.3-1.6-1.9c-0.8-0.8-1.7,0.3-0.7,1c0.7,0.5,1.3,1,2.1,1.2
						C1957,495.8,1957.1,495.6,1957,495.4L1957,495.4z"/>
				</g>
			</g>
			<g>
				<g>
					<path class="st10" d="M1956.4,497.4c-0.4-0.6-2.3-3.3-3.1-2.3c-0.7,1,2.2,2.3,2.8,2.7C1956.4,497.8,1956.5,497.6,1956.4,497.4
						L1956.4,497.4z"/>
				</g>
			</g>
			<g>
				<g>
					<path class="st10" d="M1954.9,500.2c-0.4-0.6-0.8-1.1-1.2-1.7c-0.2-0.3-0.4-0.5-0.6-0.8c-0.3-0.4-0.6-0.6-1-0.9
						c-0.7-0.6-1.4,0.1-0.8,0.8c0.3,0.4,0.5,0.6,0.9,1c0.2,0.2,0.5,0.4,0.7,0.6c0.5,0.4,1.1,0.8,1.7,1.2
						C1954.8,500.7,1955.1,500.5,1954.9,500.2L1954.9,500.2z"/>
				</g>
			</g>
			<g>
				<g>
					<path class="st10" d="M1952.5,500.9c-0.4-0.8-1.1-1.6-1.7-2.4c-0.7-0.8-1.7,0.2-0.9,0.9c0.7,0.6,1.5,1.3,2.3,1.7
						C1952.4,501.2,1952.6,501,1952.5,500.9L1952.5,500.9z"/>
				</g>
			</g>
			<g>
				<g>
					<path class="st10" d="M1951.2,502c-1-1-2-2.2-3.2-2.8c-0.7-0.3-0.9,0.5-0.5,1c0.8,1,2.3,1.7,3.4,2.3
						C1951.2,502.6,1951.5,502.3,1951.2,502L1951.2,502z"/>
				</g>
			</g>
			<g>
				<g>
					<path class="st10" d="M1948.6,502.7c-0.6-0.5-1.2-1.3-1.9-1.6c-0.6-0.2-1,0.5-0.5,0.9c0.6,0.6,1.5,0.7,2.2,1
						C1948.6,503.2,1948.8,502.9,1948.6,502.7L1948.6,502.7z"/>
				</g>
			</g>
		</g>
		<g>
			<g>
				<g>
					<path class="st10" d="M1949.1,506.9c-0.4-0.8-1-1.5-1.6-2.2s-1.2-1.6-1.9-2c-0.3-0.2-0.7,0-0.6,0.4c0.3,0.8,1.1,1.4,1.7,2.1
						c0.7,0.7,1.3,1.4,2.2,1.9C1949,507.4,1949.2,507.2,1949.1,506.9L1949.1,506.9z"/>
				</g>
			</g>
			<g>
				<g>
					<path class="st10" d="M1948.7,509.5c-1.4-1.7-2.8-3.3-4.4-4.9c-0.6-0.6-1.3,0.1-0.7,0.7c1.6,1.5,3.2,3,4.9,4.4
						C1948.7,509.9,1948.9,509.7,1948.7,509.5L1948.7,509.5z"/>
				</g>
			</g>
			<g>
				<g>
					<path class="st10" d="M1947.1,510.8c-0.8-1.1-1.8-2.2-2.9-3.1c-0.9-0.8-1.9-1.7-3.1-1.9c-0.4-0.1-0.7,0.4-0.4,0.8
						c0.7,1,1.8,1.4,2.8,2.1c1.1,0.8,2.2,1.6,3.3,2.4C1947,511.2,1947.2,511,1947.1,510.8L1947.1,510.8z"/>
				</g>
			</g>
			<g>
				<g>
					<path class="st10" d="M1945.1,511.8c-0.8-0.8-1.6-1.6-2.4-2.4c-0.7-0.6-1.3-1.3-2.2-1.4c-0.4-0.1-0.6,0.4-0.4,0.7
						c0.4,0.9,1.3,1.3,2.1,1.8c0.9,0.6,1.8,1.1,2.8,1.6C1945.1,512.2,1945.3,512,1945.1,511.8L1945.1,511.8z"/>
				</g>
			</g>
			<g>
				<g>
					<path class="st10" d="M1941.7,512.3c-0.9-1-1.8-1.9-2.8-2.7c-0.8-0.6-1.6,0.5-0.8,1.1c1,0.8,2.1,1.4,3.3,2
						C1941.8,513,1942,512.6,1941.7,512.3L1941.7,512.3z"/>
				</g>
			</g>
			<g>
				<g>
					<path class="st10" d="M1940.6,514.9c-1.2-1.3-2.5-3.2-4-4.1c-0.5-0.3-1.2,0.2-0.7,0.7c1.1,1.5,3.1,2.6,4.5,3.7
						C1940.6,515.4,1940.8,515.1,1940.6,514.9L1940.6,514.9z"/>
				</g>
			</g>
			<g>
				<g>
					<path class="st10" d="M1937.5,514.8c-0.4-0.8-1-1.3-1.6-1.9c-0.8-0.8-1.7,0.3-0.7,1c0.7,0.5,1.3,1,2.1,1.2
						C1937.5,515.2,1937.6,515,1937.5,514.8L1937.5,514.8z"/>
				</g>
			</g>
			<g>
				<g>
					<path class="st10" d="M1936.9,516.8c-0.4-0.6-2.3-3.3-3.1-2.3c-0.7,1,2.2,2.3,2.8,2.7C1936.9,517.3,1937,517,1936.9,516.8
						L1936.9,516.8z"/>
				</g>
			</g>
			<g>
				<g>
					<path class="st10" d="M1935.4,519.7c-0.4-0.6-0.8-1.1-1.2-1.7c-0.2-0.3-0.4-0.5-0.6-0.8c-0.3-0.4-0.6-0.6-1-0.9
						c-0.7-0.6-1.4,0.1-0.8,0.8c0.3,0.4,0.5,0.6,0.9,1c0.2,0.2,0.5,0.4,0.7,0.6c0.5,0.4,1.1,0.8,1.7,1.2
						C1935.3,520.2,1935.6,519.9,1935.4,519.7L1935.4,519.7z"/>
				</g>
			</g>
			<g>
				<g>
					<path class="st10" d="M1933,520.3c-0.4-0.8-1.1-1.6-1.7-2.4c-0.7-0.8-1.7,0.2-0.9,0.9c0.7,0.6,1.5,1.3,2.3,1.7
						C1932.9,520.6,1933.1,520.5,1933,520.3L1933,520.3z"/>
				</g>
			</g>
			<g>
				<g>
					<path class="st10" d="M1931.7,521.4c-1-1-2-2.2-3.2-2.8c-0.7-0.3-0.9,0.5-0.5,1c0.8,1,2.3,1.7,3.4,2.3
						C1931.7,522,1932,521.7,1931.7,521.4L1931.7,521.4z"/>
				</g>
			</g>
			<g>
				<g>
					<path class="st10" d="M1929.1,522.1c-0.6-0.5-1.2-1.3-1.9-1.6c-0.6-0.2-1,0.5-0.5,0.9c0.6,0.6,1.5,0.7,2.2,1
						C1929.1,522.7,1929.3,522.3,1929.1,522.1L1929.1,522.1z"/>
				</g>
			</g>
		</g>
		<g>
			<g>
				<g>
					<path class="st10" d="M1929.6,526.4c-0.4-0.8-1-1.5-1.6-2.2s-1.2-1.6-1.9-2c-0.3-0.2-0.7,0-0.6,0.4c0.3,0.8,1.1,1.4,1.7,2.1
						c0.7,0.7,1.3,1.4,2.2,1.9C1929.5,526.8,1929.7,526.6,1929.6,526.4L1929.6,526.4z"/>
				</g>
			</g>
			<g>
				<g>
					<path class="st10" d="M1929.2,529c-1.4-1.7-2.8-3.3-4.4-4.9c-0.6-0.6-1.3,0.1-0.7,0.7c1.6,1.5,3.2,3,4.9,4.4
						C1929.2,529.3,1929.4,529.1,1929.2,529L1929.2,529z"/>
				</g>
			</g>
			<g>
				<g>
					<path class="st10" d="M1927.6,530.2c-0.8-1.1-1.8-2.2-2.9-3.1c-0.9-0.8-1.9-1.7-3.1-1.9c-0.4-0.1-0.7,0.4-0.4,0.8
						c0.7,1,1.8,1.4,2.8,2.1c1.1,0.8,2.2,1.6,3.3,2.4C1927.5,530.6,1927.7,530.4,1927.6,530.2L1927.6,530.2z"/>
				</g>
			</g>
			<g>
				<g>
					<path class="st10" d="M1925.6,531.2c-0.8-0.8-1.6-1.6-2.4-2.4c-0.7-0.6-1.3-1.3-2.2-1.4c-0.4-0.1-0.6,0.4-0.4,0.7
						c0.4,0.9,1.3,1.3,2.1,1.8c0.9,0.6,1.8,1.1,2.8,1.6C1925.6,531.6,1925.8,531.4,1925.6,531.2L1925.6,531.2z"/>
				</g>
			</g>
			<g>
				<g>
					<path class="st10" d="M1922.2,531.7c-0.9-1-1.8-1.9-2.8-2.7c-0.8-0.6-1.6,0.5-0.8,1.1c1,0.8,2.1,1.4,3.3,2
						C1922.3,532.4,1922.5,532.1,1922.2,531.7L1922.2,531.7z"/>
				</g>
			</g>
			<g>
				<g>
					<path class="st10" d="M1921.1,534.3c-1.2-1.3-2.5-3.2-4-4.1c-0.5-0.3-1.2,0.2-0.7,0.7c1.1,1.5,3.1,2.6,4.5,3.7
						C1921.1,534.8,1921.3,534.5,1921.1,534.3L1921.1,534.3z"/>
				</g>
			</g>
			<g>
				<g>
					<path class="st10" d="M1918,534.3c-0.4-0.8-1-1.3-1.6-1.9c-0.8-0.8-1.7,0.3-0.7,1c0.7,0.5,1.3,1,2.1,1.2
						C1917.9,534.6,1918.1,534.5,1918,534.3L1918,534.3z"/>
				</g>
			</g>
			<g>
				<g>
					<path class="st10" d="M1917.4,536.2c-0.4-0.6-2.3-3.3-3.1-2.3c-0.7,1,2.2,2.3,2.8,2.7C1917.4,536.7,1917.5,536.4,1917.4,536.2
						L1917.4,536.2z"/>
				</g>
			</g>
			<g>
				<g>
					<path class="st10" d="M1915.9,539.1c-0.4-0.6-0.8-1.1-1.2-1.7c-0.2-0.3-0.4-0.5-0.6-0.8c-0.3-0.4-0.6-0.6-1-0.9
						c-0.7-0.6-1.4,0.1-0.8,0.8c0.3,0.4,0.5,0.6,0.9,1c0.2,0.2,0.5,0.4,0.7,0.6c0.5,0.4,1.1,0.8,1.7,1.2
						C1915.8,539.6,1916.1,539.3,1915.9,539.1L1915.9,539.1z"/>
				</g>
			</g>
			<g>
				<g>
					<path class="st10" d="M1913.5,539.7c-0.4-0.8-1.1-1.6-1.7-2.4c-0.7-0.8-1.7,0.2-0.9,0.9c0.7,0.6,1.5,1.3,2.3,1.7
						C1913.4,540,1913.6,539.9,1913.5,539.7L1913.5,539.7z"/>
				</g>
			</g>
			<g>
				<g>
					<path class="st10" d="M1912.2,540.8c-1-1-2-2.2-3.2-2.8c-0.7-0.3-0.9,0.5-0.5,1c0.8,1,2.3,1.7,3.4,2.3
						C1912.2,541.4,1912.5,541.1,1912.2,540.8L1912.2,540.8z"/>
				</g>
			</g>
			<g>
				<g>
					<path class="st10" d="M1909.6,541.5c-0.6-0.5-1.2-1.3-1.9-1.6c-0.6-0.2-1,0.5-0.5,0.9c0.6,0.6,1.5,0.7,2.2,1
						C1909.6,542.1,1909.8,541.7,1909.6,541.5L1909.6,541.5z"/>
				</g>
			</g>
		</g>
		<g>
			<g>
				<g>
					<path class="st10" d="M1910.1,545.8c-0.4-0.8-1-1.5-1.6-2.2s-1.2-1.6-1.9-2c-0.3-0.2-0.7,0-0.6,0.4c0.3,0.8,1.1,1.4,1.7,2.1
						c0.7,0.7,1.3,1.4,2.2,1.9C1910,546.2,1910.2,546,1910.1,545.8L1910.1,545.8z"/>
				</g>
			</g>
			<g>
				<g>
					<path class="st10" d="M1909.7,548.4c-1.4-1.7-2.8-3.3-4.4-4.9c-0.6-0.6-1.3,0.1-0.7,0.7c1.6,1.5,3.2,3,4.9,4.4
						C1909.7,548.8,1909.9,548.6,1909.7,548.4L1909.7,548.4z"/>
				</g>
			</g>
			<g>
				<g>
					<path class="st10" d="M1908.1,549.6c-0.8-1.1-1.8-2.2-2.9-3.1c-0.9-0.8-1.9-1.7-3.1-1.9c-0.4-0.1-0.7,0.4-0.4,0.8
						c0.7,1,1.8,1.4,2.8,2.1c1.1,0.8,2.2,1.6,3.3,2.4C1908,550,1908.2,549.8,1908.1,549.6L1908.1,549.6z"/>
				</g>
			</g>
			<g>
				<g>
					<path class="st10" d="M1906.1,550.6c-0.8-0.8-1.6-1.6-2.4-2.4c-0.7-0.6-1.3-1.3-2.2-1.4c-0.4-0.1-0.6,0.4-0.4,0.7
						c0.4,0.9,1.3,1.3,2.1,1.8c0.9,0.6,1.8,1.1,2.8,1.6C1906.1,551,1906.3,550.8,1906.1,550.6L1906.1,550.6z"/>
				</g>
			</g>
			<g>
				<g>
					<path class="st10" d="M1902.7,551.2c-0.9-1-1.8-1.9-2.8-2.7c-0.8-0.6-1.6,0.5-0.8,1.1c1,0.8,2.1,1.4,3.3,2
						C1902.7,551.8,1903,551.5,1902.7,551.2L1902.7,551.2z"/>
				</g>
			</g>
			<g>
				<g>
					<path class="st10" d="M1901.6,553.7c-1.2-1.3-2.5-3.2-4-4.1c-0.5-0.3-1.2,0.2-0.7,0.7c1.1,1.5,3.1,2.6,4.5,3.7
						C1901.6,554.2,1901.8,553.9,1901.6,553.7L1901.6,553.7z"/>
				</g>
			</g>
			<g>
				<g>
					<path class="st10" d="M1898.5,553.7c-0.4-0.8-1-1.3-1.6-1.9c-0.8-0.8-1.7,0.3-0.7,1c0.7,0.5,1.3,1,2.1,1.2
						C1898.4,554.1,1898.6,553.9,1898.5,553.7L1898.5,553.7z"/>
				</g>
			</g>
			<g>
				<g>
					<path class="st10" d="M1897.9,555.6c-0.4-0.6-2.3-3.3-3.1-2.3c-0.7,1,2.2,2.3,2.8,2.7C1897.9,556.1,1898,555.8,1897.9,555.6
						L1897.9,555.6z"/>
				</g>
			</g>
			<g>
				<g>
					<path class="st10" d="M1896.4,558.5c-0.4-0.6-0.8-1.1-1.2-1.7c-0.2-0.3-0.4-0.5-0.6-0.8c-0.3-0.4-0.6-0.6-1-0.9
						c-0.7-0.6-1.4,0.1-0.8,0.8c0.3,0.4,0.5,0.6,0.9,1c0.2,0.2,0.5,0.4,0.7,0.6c0.5,0.4,1.1,0.8,1.7,1.2
						C1896.3,559,1896.6,558.7,1896.4,558.5L1896.4,558.5z"/>
				</g>
			</g>
			<g>
				<g>
					<path class="st10" d="M1894,559.1c-0.4-0.8-1.1-1.6-1.7-2.4c-0.7-0.8-1.7,0.2-0.9,0.9c0.7,0.6,1.5,1.3,2.3,1.7
						C1893.9,559.5,1894.1,559.3,1894,559.1L1894,559.1z"/>
				</g>
			</g>
			<g>
				<g>
					<path class="st10" d="M1892.7,560.2c-1-1-2-2.2-3.2-2.8c-0.7-0.3-0.9,0.5-0.5,1c0.8,1,2.3,1.7,3.4,2.3
						C1892.7,560.9,1892.9,560.5,1892.7,560.2L1892.7,560.2z"/>
				</g>
			</g>
			<g>
				<g>
					<path class="st10" d="M1890.1,561c-0.6-0.5-1.2-1.3-1.9-1.6c-0.6-0.2-1,0.5-0.5,0.9c0.6,0.6,1.5,0.7,2.2,1
						C1890.1,561.5,1890.3,561.1,1890.1,561L1890.1,561z"/>
				</g>
			</g>
		</g>
		<g>
			<g>
				<g>
					<path class="st10" d="M1890.6,565.2c-0.4-0.8-1-1.5-1.6-2.2s-1.2-1.6-1.9-2c-0.3-0.2-0.7,0-0.6,0.4c0.3,0.8,1.1,1.4,1.7,2.1
						c0.7,0.7,1.3,1.4,2.2,1.9C1890.5,565.6,1890.7,565.4,1890.6,565.2L1890.6,565.2z"/>
				</g>
			</g>
			<g>
				<g>
					<path class="st10" d="M1890.2,567.8c-1.4-1.7-2.8-3.3-4.4-4.9c-0.6-0.6-1.3,0.1-0.7,0.7c1.6,1.5,3.2,3,4.9,4.4
						C1890.2,568.2,1890.4,568,1890.2,567.8L1890.2,567.8z"/>
				</g>
			</g>
			<g>
				<g>
					<path class="st10" d="M1888.6,569c-0.8-1.1-1.8-2.2-2.9-3.1c-0.9-0.8-1.9-1.7-3.1-1.9c-0.4-0.1-0.7,0.4-0.4,0.8
						c0.7,1,1.8,1.4,2.8,2.1c1.1,0.8,2.2,1.6,3.3,2.4C1888.5,569.4,1888.7,569.2,1888.6,569L1888.6,569z"/>
				</g>
			</g>
			<g>
				<g>
					<path class="st10" d="M1886.6,570c-0.8-0.8-1.6-1.6-2.4-2.4c-0.7-0.6-1.3-1.3-2.2-1.4c-0.4-0.1-0.6,0.4-0.4,0.7
						c0.4,0.9,1.3,1.3,2.1,1.8c0.9,0.6,1.8,1.1,2.8,1.6C1886.6,570.5,1886.8,570.2,1886.6,570L1886.6,570z"/>
				</g>
			</g>
			<g>
				<g>
					<path class="st10" d="M1883.2,570.6c-0.9-1-1.8-1.9-2.8-2.7c-0.8-0.6-1.6,0.5-0.8,1.1c1,0.8,2.1,1.4,3.3,2
						C1883.2,571.2,1883.5,570.9,1883.2,570.6L1883.2,570.6z"/>
				</g>
			</g>
			<g>
				<g>
					<path class="st10" d="M1882.1,573.1c-1.2-1.3-2.5-3.2-4-4.1c-0.5-0.3-1.2,0.2-0.7,0.7c1.1,1.5,3.1,2.6,4.5,3.7
						C1882.1,573.7,1882.3,573.3,1882.1,573.1L1882.1,573.1z"/>
				</g>
			</g>
			<g>
				<g>
					<path class="st10" d="M1878.9,573.1c-0.4-0.8-1-1.3-1.6-1.9c-0.8-0.8-1.7,0.3-0.7,1c0.7,0.5,1.3,1,2.1,1.2
						C1878.9,573.5,1879,573.3,1878.9,573.1L1878.9,573.1z"/>
				</g>
			</g>
			<g>
				<g>
					<path class="st10" d="M1878.4,575.1c-0.4-0.6-2.3-3.3-3.1-2.3c-0.7,1,2.2,2.3,2.8,2.7C1878.3,575.5,1878.5,575.2,1878.4,575.1
						L1878.4,575.1z"/>
				</g>
			</g>
			<g>
				<g>
					<path class="st10" d="M1876.9,577.9c-0.4-0.6-0.8-1.1-1.2-1.7c-0.2-0.3-0.4-0.5-0.6-0.8c-0.3-0.4-0.6-0.6-1-0.9
						c-0.7-0.6-1.4,0.1-0.8,0.8c0.3,0.4,0.5,0.6,0.9,1c0.2,0.2,0.5,0.4,0.7,0.6c0.5,0.4,1.1,0.8,1.7,1.2
						C1876.8,578.4,1877,578.1,1876.9,577.9L1876.9,577.9z"/>
				</g>
			</g>
			<g>
				<g>
					<path class="st10" d="M1874.5,578.5c-0.4-0.8-1.1-1.6-1.7-2.4c-0.7-0.8-1.7,0.2-0.9,0.9c0.7,0.6,1.5,1.3,2.3,1.7
						C1874.4,578.9,1874.6,578.7,1874.5,578.5L1874.5,578.5z"/>
				</g>
			</g>
			<g>
				<g>
					<path class="st10" d="M1873.2,579.7c-1-1-2-2.2-3.2-2.8c-0.7-0.3-0.9,0.5-0.5,1c0.8,1,2.3,1.7,3.4,2.3
						C1873.2,580.3,1873.4,579.9,1873.2,579.7L1873.2,579.7z"/>
				</g>
			</g>
			<g>
				<g>
					<path class="st10" d="M1870.6,580.4c-0.6-0.5-1.2-1.3-1.9-1.6c-0.6-0.2-1,0.5-0.5,0.9c0.6,0.6,1.5,0.7,2.2,1
						C1870.6,580.9,1870.8,580.6,1870.6,580.4L1870.6,580.4z"/>
				</g>
			</g>
		</g>
		<g>
			<g>
				<path class="st10" d="M1862.4,585.6c0.7,0.1,2-0.2,2.6,0.1c1.3,1.2,2.6,2.4,3.8,3.6c0,0.4,0,0.7,0,1.1c0.5,1,0.2,1.2,0.9,2
					c3.5,3.9,8.2-1.3,9.5,6.7c0.2,1.4-0.4,2.5,1,3.8c0.8,0.7,1.5,0.6,2.3,0.8c0.3,0.1,0.8-0.2,1.1,0c0.7-0.2,1.2,0.2,1.5,1.3
					c1.5,1.1,1.5,2,0,2.7c-0.7,0.7,0.7,2.1,1.4,1.4c1.4-1.5,3.1-4.6,0-6.6c-2.1-1.4-4,0.8-5.6-2.7c-0.6-1.3,0.1-2.6-0.8-4.2
					c-0.8-1.4-2.1-2.5-3.5-3.1c-1.7-0.7-0.8,0.2-2.7-0.4c-1.6,0.4-2.8-0.4-3.7-2.6c-0.1-0.4-0.1-0.8-0.2-1.2c-1.9-3.3-4.8-3.9-7.8-3
					C1862.1,585.3,1862.2,585.6,1862.4,585.6L1862.4,585.6z"/>
			</g>
		</g>
		<g>
			<g>
				<path class="st10" d="M1862.8,584.7c2.5-0.5,2-0.8,4.7,1.7c7.1,6.3,1-0.1,1.9,3c0.4,1.2-0.6,0.8,0.4,2.3c1.4,2,3.2,1,4.7,1.1
					c0.3-0.1,0.6-0.2,0.9-0.3c1.7,1.4,3.5,2.8,5.2,4.2c0.3,1-0.7,1.9-0.9,2.9c-0.1,0.8-0.5,1.5-0.1,2.4c0.4,1,1,1.5,2,2
					c0.6,0.3,6.2,0.3,5.3,1.4c-0.4,0.4,0.2,1.3,0.8,1c0.9-0.4,1.2-0.8,0.8-2c-0.7-1.9-2.1-1.4-3.4-2c-0.5,0-0.9,0.1-1.3,0.2
					c-2.3-1.4-3.1-2.9-2.3-4.3c0-0.8,0.3-1.5,0.2-2.3c-0.2-1.6-1-3.4-2.5-4.4c-1.4-0.9-2.4-0.7-3.7-0.5c-0.9,0.3-1.8,0.6-2.6,0.9
					c-2.2-1.3-2.9-2.6-2.1-3.8c-0.1-0.3,0-0.8-0.1-1.2c-1.1-4.2-6.1-3.5-8.4-2.6C1862.4,584.4,1862.6,584.8,1862.8,584.7
					L1862.8,584.7z"/>
			</g>
		</g>
		<g>
			<g>
				<path class="st10" d="M1856.2,608.8c0.5,1,1.9,1.6,2.7,2.3c1.1,1.1,1.6,2.5,2.6,3.6c0.3,0.4,0.7,0.1,0.7-0.2
					c0-1.4-1.4-3.1-2.6-4.2C1858.9,609.6,1857.3,608.2,1856.2,608.8L1856.2,608.8L1856.2,608.8z"/>
			</g>
		</g>
		<g>
			<g>
				<path class="st10" d="M1990.8,470.2c-3,1.3-5,4-7.2,6.2c-2.6,2.6-5.2,5.1-7.7,7.7c-5.1,5.2-10.2,10.4-15.3,15.6
					c-9.8,10.1-19.6,20.2-29.4,30.2c-20.1,20.4-40.8,40.2-60.4,61.1c-0.6,0.6,0.5,1.7,1.1,1.1c20.6-19.9,40.2-40.8,60.3-61.2
					c9.9-10,19.8-19.9,29.8-29.8c5.2-5.1,10.3-10.3,15.4-15.5c2.6-2.6,5.1-5.2,7.6-7.8c2.2-2.2,4.8-4.3,6.1-7.3
					C1991.2,470.4,1991,470.1,1990.8,470.2L1990.8,470.2z"/>
			</g>
		</g>
		<g>
			<g>
				<path class="st10" d="M1992.8,468.9c-1.7,0.8-3,2.1-4.3,3.3c-1.3,1.2-2.9,2.3-3.7,4c-0.1,0.3,0.2,0.6,0.5,0.5
					c1.8-0.6,3-2.2,4.2-3.4c1.3-1.3,2.6-2.5,3.5-4.1C1993.2,469.1,1992.9,468.9,1992.8,468.9L1992.8,468.9z"/>
			</g>
		</g>
		<g>
			<g>
				<path class="st10" d="M2002.5,478.7c-5.8,3.2-10.4,8.8-15.2,13.3c-5.3,4.9-10.5,9.9-15.8,14.8c-10.5,9.9-21,19.8-31.5,29.7
					c-20.6,19.2-43,37.5-59.6,60.6c-0.6,0.8,0.8,2.3,1.4,1.4c16.9-22.8,39-41.3,59.5-60.7c10.5-9.9,21-19.8,31.5-29.7
					c5.3-4.9,10.5-9.9,15.8-14.8c4.8-4.5,10.6-8.8,14.1-14.3C2002.7,478.8,2002.6,478.7,2002.5,478.7L2002.5,478.7z"/>
			</g>
		</g>
		<g>
			<g>
				<path class="st10" d="M2002,479.3c-11.2,9.1-21.3,19.6-31.7,29.6c-10.1,9.6-20.1,19.3-30,29.1c-20.3,19.8-40.3,39.9-60.3,60.1
					c-0.5,0.5,0.5,1.4,0.9,0.9c19.8-20.3,39.9-40.3,60.2-60.2c10-9.7,20-19.4,30-29.1c10.4-10,21.4-19.5,31.2-30.1
					C2002.4,479.5,2002.2,479.2,2002,479.3L2002,479.3z"/>
			</g>
		</g>
	</g>
	<g>
		<g>
			<path class="st17" d="M203.2,742.3l29.5-19.3l38.6,26.7c0,0,0.8-75,46.6-130.7c0,0-41.1,79-22,173.2L203.2,742.3z"/>
		</g>
		<path class="st10" d="M318.6,616.6c-4.7,3.4-8.3,7.9-11.8,12.5c-0.7,0.8-1.3,1.6-2,2.4c-3.3,4.1-6.2,8.6-8.7,13.2c0,0,0,0,0,0.1
			c-2.5,4.3-4.5,8.8-6.4,13.5c-1.6,3.9-3,7.9-4.3,12c-1,3-2,6-3,9c-3.9,11.9-7.4,23.9-8.9,36.5c-0.5,4.7-0.8,9.4-1.2,14
			c-0.6,3.1-1.1,6.2-1.3,9.3c-0.1,1.5-0.2,3-0.2,4.5c-0.1,1.4-0.1,2.9,0.1,4.2c-5.8-5.3-13.5-7.7-19.9-12.1c-3.5-2.4-6.6-5.4-10-7.9
			c-3-2.1-6.7-3.7-8.8-6.9c-0.3-0.4-0.8-0.5-1.2-0.2c-8.8,5.5-15.9,13.2-24.6,19c-1.4,0.6-2.8,1.2-4.1,2c-0.5,0.3-0.3,0.9,0.1,1.1
			c10.7,6.8,21.9,12.5,33.1,18.1c3.8,2.9,7.5,5.8,11.5,8.4c3.7,2.3,7.5,4.5,11.3,6.6c3.7,2,7.8,2.2,11.6,4c2.2,1,4.3,2.2,6.3,3.4
			c3,1.9,6,3.7,9,5.3c2.2,1.2,4.4,2.3,6.8,3.2c1.1,0.4,2.2,0.9,3.3,1.3c0.5,0.2,0.8-0.1,1-0.4c0.3-0.1,0.6-0.4,0.6-0.9
			c0-0.2,0-0.4,0-0.6c0.1-0.1,0.1-0.3,0.1-0.5c-0.1-0.2-0.1-0.4-0.1-0.6c-0.2-2.2-0.7-4.3-1.2-6.5c-0.7-5.1-1.1-10.2-1.8-15.3
			c-0.3-2.1-0.5-4.2-0.8-6.3c-0.3-5.1-0.4-10.1-0.4-15.2c-0.2-15-0.5-30,1.9-44.9c2.4-14.6,7.1-28.8,10.8-43.1
			c1.7-6.4,3.2-13,5.4-19.3c0.5-1,1-1.9,1.5-2.9c1.2-2.4,2-4.9,2.7-7.4c1.5-3.3,2.9-6.6,3.8-10.1c0.3-0.2,0.3-0.5,0.2-0.7
			c0.1-0.2,0.1-0.4,0.2-0.7l0,0C320.2,617.3,319.4,616.1,318.6,616.6z M283.3,681.3c3-11,6.7-22,11.9-32.2c0.5-1,1-2,1.6-3
			c2.2-3.9,4.7-7.6,7.3-11.2c-0.1,0.2-0.2,0.4-0.3,0.6c-4,6.9-6.2,14.5-9.9,21.5c-3.8,7.3-6.9,14.9-9.6,22.7
			c-1.2,3.5-2.1,7-3.2,10.5v0.1C281.7,687.3,282.5,684.3,283.3,681.3z M271.7,750.8c0,0.1,0.1,0.2,0.1,0.2c-0.1,0-0.2-0.1-0.6-0.1
			c-0.9-0.1-2.3-1.5-3-2.1c-2.2-1.7-4.5-3.4-6.7-5c3.4,1.9,6.7,4,9.5,6.8C271.2,750.7,271.5,750.8,271.7,750.8z M231.3,722.6
			c0.1,0.2,0.3,0.4,0.4,0.6c-1,0.2-1.9,0.6-2.7,1C229.8,723.6,230.5,723.1,231.3,722.6z M218.1,749.8c0,0.1,0.1,0.2,0.1,0.3
			c-0.5-0.3-1-0.5-1.6-0.8l0,0C217.1,749.4,217.6,749.6,218.1,749.8z M226,753.9c0,0.1,0.1,0.1,0.1,0.2c-0.5-0.3-1-0.5-1.6-0.8v-0.1
			c0-0.1,0-0.2-0.1-0.2C225,753.3,225.5,753.6,226,753.9z M223.4,752.7c-0.6-0.3-1.2-0.6-1.8-0.9c0-0.1,0-0.2,0-0.2
			c-0.1-0.1-0.1-0.2-0.2-0.3c0.5,0.3,1.1,0.5,1.6,0.8C223.1,752.3,223.3,752.5,223.4,752.7z M220.7,751.4c-0.5-0.3-1-0.5-1.5-0.8
			c0-0.1-0.1-0.3-0.1-0.4c0.4,0.2,0.8,0.4,1.2,0.5C220.4,751,220.5,751.2,220.7,751.4z M205,742.4c-0.1-0.1-0.3,0.1-0.2,0.2
			c0.1,0.1,0.2,0.1,0.2,0.2c-0.3-0.2-0.7-0.4-1-0.6c0.2-0.2,0.5-0.3,0.7-0.4l0,0C204.8,742,204.9,742.2,205,742.4z M233.8,758
			c0-0.3-0.1-0.6-0.2-0.8c0.2,0.3,0.3,0.7,0.5,1C234,758.1,233.9,758,233.8,758z M248.2,769.1c-3-1.9-5.9-4-8.7-6.2
			c3.5,1.7,7,3.4,10.5,5.2c6.3,3.1,12.6,6.8,18.7,10.5c-3.1-1.1-6.3-1.5-9.2-3C255.6,773.6,251.9,771.3,248.2,769.1z M294,790.5
			c-1.1-1.8-2.8-3.4-3.9-5.1c-0.2-0.3-0.8,0-0.5,0.4c0.8,1.3,1.7,2.7,2.6,4c-0.5-0.2-1-0.4-1.5-0.7c0-0.1,0-0.1-0.1-0.2
			c-0.6-0.5-1.2-1.6-1.6-2.2c-0.6-0.9-1.2-1.9-1.8-2.8c-0.3-0.4-0.9,0-0.6,0.4c0.7,1.2,1.4,2.4,2.1,3.6c0,0.1,0.1,0.2,0.2,0.3
			c-0.5-0.3-1.1-0.5-1.6-0.8c-1.2-1.4-2.1-3-2.6-4.9c-0.2-0.5-1-0.3-0.8,0.3c0.3,1.1,0.8,2.4,1.5,3.5c-0.2-0.1-0.3-0.2-0.5-0.3
			c-0.4-0.6-1-1.1-1.4-1.6c-0.8-1.1-1.5-2.2-2.3-3.4c-0.3-0.4-0.8,0-0.6,0.4c0.7,1.1,1.3,2.2,2.1,3.3c-0.4-0.2-0.8-0.5-1.2-0.7
			l-0.1-0.1c-0.2-0.4-0.4-0.7-0.7-1.1c-0.7-1.1-1.4-2.1-2.2-3.1c-0.2-0.3-0.8,0-0.5,0.4c0.6,1,1.2,1.9,1.8,2.9
			c-0.5-0.3-0.9-0.6-1.4-0.8c-0.3-0.5-0.6-0.9-0.8-1.4c-0.5-0.9-1.1-1.8-1.7-2.7c-0.3-0.4-1,0-0.7,0.5c0.6,0.8,1.1,1.7,1.6,2.6
			c-0.5-0.3-0.9-0.6-1.4-0.9c-0.1-0.1-0.2-0.2-0.2-0.2c-0.8-1.1-1.4-2.2-2.1-3.3c-0.3-0.4-1,0-0.7,0.4c0.1,0.2,0.5,1,1,1.9l0,0
			c-1-1.8-2.2-3.5-3.4-5.2c-0.2-0.3-0.6,0-0.4,0.3c0.8,1.3,1.6,2.6,2.3,4c-0.3-0.2-0.6-0.4-0.9-0.6c-0.8-1.5-2.1-2.9-3-4.3
			c-0.2-0.3-0.7,0-0.5,0.3c0.5,0.9,1,1.9,1.6,2.8c-0.4-0.3-0.8-0.5-1.3-0.8c-0.3-0.5-0.7-1-1-1.5c-0.4-0.7-0.9-1.6-1.8-1.8
			c0,0-0.1,0.1,0,0.1c0.4,0.2,0.7,1,0.9,1.4c0.2,0.3,0.4,0.7,0.5,1c-0.3-0.2-0.6-0.4-0.9-0.5c-0.3-0.3-0.6-0.7-0.8-1
			c-0.5-0.7-0.9-1.4-1.4-2.1c-0.2-0.3-0.7,0-0.5,0.3c0.3,0.5,0.6,1.1,0.9,1.7c-0.2-0.1-0.5-0.3-0.7-0.4c-0.3-0.3-0.5-0.7-0.7-1
			c-0.7-1.1-1.4-2.3-2.1-3.4c-0.1-0.2-0.5,0-0.3,0.2c0.6,1.1,1.2,2.2,1.8,3.3c-0.3-0.2-0.6-0.3-0.9-0.5c-0.9-1.4-1.9-2.8-2.8-4.2
			c-0.2-0.3-0.7,0-0.5,0.3c0.6,1,1.1,2,1.6,3c-0.4-0.2-0.8-0.5-1.2-0.7c-0.2-0.2-0.5-0.5-0.6-0.7c-0.5-0.7-0.9-1.4-1.4-2.1
			c-0.2-0.3-0.7,0-0.5,0.3c0.3,0.5,0.6,1.1,0.9,1.6c-0.1-0.1-0.2-0.1-0.4-0.2c-0.2-0.2-0.3-0.4-0.4-0.6c-0.5-0.8-1.1-1.6-1.6-2.3
			c-0.2-0.4-0.8,0-0.6,0.4c0.4,0.6,0.7,1.2,1.1,1.8c-0.3-0.2-0.6-0.3-0.9-0.5c-0.6-1.3-1.4-2.6-2.3-3.6c-0.2-0.2-0.6,0-0.4,0.3
			c0.6,0.8,1,1.8,1.5,2.7c-0.4-0.2-0.8-0.4-1.2-0.6c-0.4-0.4-0.8-0.8-1.2-1.3c-0.4-0.6-0.8-1.2-1.3-1.8c-0.1-0.1-0.3,0-0.2,0.2
			c0.3,0.6,0.7,1.5,1.1,2.2c-0.2-0.1-0.4-0.2-0.6-0.3c-0.3-0.4-0.6-1.2-0.7-1.4c-0.3-0.6-0.7-1.3-1.2-1.8c-0.2-0.2-0.6,0-0.4,0.3
			c0.5,0.8,0.9,1.6,1.3,2.5c-0.3-0.1-0.6-0.3-0.9-0.4c-0.7-1.2-1.6-2.4-2.3-3.6c-0.2-0.3-0.6,0-0.5,0.3c0.5,0.8,0.9,1.7,1.3,2.6
			c-0.3-0.2-0.7-0.3-1-0.5c-0.3-0.6-0.7-1.1-1-1.6c-0.6-1-1.2-2.1-1.9-3c-0.2-0.2-0.5,0-0.4,0.2c0.6,1.1,1.1,2.2,1.6,3.4
			c0,0.1,0.1,0.2,0.1,0.3c-0.2-0.1-0.4-0.2-0.6-0.3c-0.1-0.6-0.6-1.2-0.9-1.6c-0.5-0.9-1.1-1.8-1.7-2.6c-0.2-0.3-0.7,0-0.5,0.3
			c0.6,0.8,1.1,1.8,1.5,2.7c0.1,0.2,0.2,0.4,0.3,0.6c-0.4-0.2-0.7-0.3-1.1-0.5c-0.9-1.5-1.7-3.2-2.8-4.6c-0.2-0.3-0.7,0-0.5,0.3
			c0.8,1.1,1.2,2.4,1.8,3.6c-0.2-0.1-0.4-0.2-0.5-0.3c-0.8-1.6-1.8-3.2-2.8-4.6c-0.2-0.3-0.6,0-0.4,0.3c0.7,1.2,1.2,2.5,1.8,3.7
			c-0.5-0.2-1-0.5-1.5-0.7c-0.3-0.5-0.6-1.1-0.9-1.5c-0.6-1-1.2-2-1.8-2.9c-0.2-0.3-0.6,0-0.4,0.3c0.3,0.5,0.5,1,0.8,1.5
			c-0.1-0.2-0.2-0.4-0.3-0.6c-0.6-1.1-1.4-2.3-2.2-3.3c-0.2-0.2-0.5,0-0.4,0.2c0.7,1,1.2,2.1,1.7,3.2c0.2,0.5,0.4,1.1,0.7,1.7
			c-0.3-0.1-0.5-0.3-0.8-0.4c-0.1-0.1-0.2-0.1-0.2-0.2c-0.2-0.7-0.8-1.3-1.1-1.9c-0.6-1.1-1.2-2.2-1.6-3.4c-0.1-0.3-0.6-0.2-0.5,0.2
			c0.3,1.3,0.8,2.5,1.4,3.6c0,0.1,0.1,0.2,0.1,0.3c-0.3-0.2-0.5-0.4-0.8-0.5c-0.2-0.4-0.5-0.7-0.6-0.9c-0.9-1.5-1.5-3.1-2.7-4.5
			c-0.1-0.2-0.4,0-0.3,0.2c0.8,1.3,1.2,2.7,1.9,4.1c-0.2-0.1-0.4-0.3-0.6-0.4c-0.1,0-0.2-0.1-0.2-0.1c-0.2-0.2-0.3-0.5-0.5-0.7
			c-0.6-1.1-1.1-2.2-1.8-3.2c-0.2-0.3-0.6,0-0.4,0.3c0.6,0.9,1,1.9,1.5,2.9c-0.5-0.3-1-0.5-1.5-0.8c-0.3-0.4-0.6-0.8-0.8-1.2
			c-0.6-1.1-1.3-2.3-2.1-3.3c-0.1-0.1-0.2,0-0.2,0.1c0.6,1.2,1.1,2.5,1.7,3.7c-0.5-0.3-1.1-0.5-1.6-0.7c-0.6-1.2-1.3-2.5-2.1-3.5
			c-0.1-0.1-0.4,0-0.2,0.2c0.5,0.9,0.9,1.9,1.3,2.9c-0.4-0.2-0.7-0.3-1.1-0.5c-0.6-1.4-1.5-2.9-2.7-3.6c-0.1-0.1-0.2,0.1-0.1,0.2
			c0.9,0.7,1.4,1.8,1.8,3c-0.5-0.2-0.9-0.4-1.4-0.6c-0.5-1.5-1.3-3-2.3-4.2c-0.1-0.2-0.4,0-0.3,0.2c0.8,1.1,1.1,2.5,1.6,3.7
			c-0.5-0.2-1-0.4-1.5-0.6l0,0c0-0.7-0.7-1.5-1.1-2c-0.5-0.9-1.1-1.8-1.7-2.7c-0.2-0.2-0.6,0-0.4,0.3c0.6,0.9,1.1,1.8,1.6,2.8
			c0.2,0.4,0.4,0.9,0.7,1.3c-0.5-0.2-1.1-0.5-1.6-0.7c-0.7-1.4-1.6-2.8-2.6-3.9c-0.1-0.1-0.3,0-0.2,0.2c0.4,1,1,2.1,1.6,3.1
			c-0.4-0.2-0.8-0.4-1.2-0.6c-0.1,0-0.1-0.1-0.2-0.1c-0.1-0.2-0.3-0.4-0.4-0.5c-0.5-0.9-1-1.8-1.7-2.6c-0.1-0.2-0.4,0-0.3,0.2
			c0.4,0.8,0.8,1.5,1.2,2.3c-0.5-0.3-1-0.6-1.5-0.9c-0.1-0.1-0.2-0.3-0.3-0.4c-0.3-0.5-0.6-1.1-1.1-1.5l0,0c2.3-0.9,4.5-2.2,6.5-3.6
			c2.2-1.4,4.3-2.8,6.4-4.4c4.7-3.5,8.3-8.6,14.4-9.8c1.4,1.5,3.2,2.6,5,3.8c4,2.6,7.5,5.8,11.3,8.7c2.4,1.8,5,3.2,7.6,4.7
			c2.3,1.6,4.7,3.2,7,4.9c3.1,2.3,5.7,5,9.2,6.6c0.3,0.1,0.7-0.2,0.6-0.5c-0.4-1.4-0.7-2.9-0.9-4.4c0-2.4,0.5-5,0.7-7.3
			c0.3-3.1,0.7-6.1,1-9.1c0.3-2.6,0.4-5.2,0.6-7.8c0.5-2.2,0.9-4.5,1.2-6.7c1.1-7.4,2.5-14.7,4.1-21.9c0.5-1,0.9-2,1.3-3
			c1.5-4,2.5-8.2,4-12.3c2.5-7,5.2-14.1,8.8-20.7c6.1-11.5,10.1-25.2,19.3-34.8c1.2-1.1,2.4-2.2,3.6-3.1c-0.4,1.1-0.8,2.1-1.2,3.2
			c-1.7,4-3.5,7.9-5.1,11.9c-0.8,2.2-1.5,4.4-2.2,6.7c-2.2,4.5-4.3,9-6,13.8c-2.6,7.4-4.5,15.1-6.1,22.8c-1.4,6.6-1.7,13.2-2.3,19.9
			c-0.2,1.1-0.4,2.2-0.6,3.3c-0.5,3.2-0.9,6.3-1.1,9.5c-0.6,3.5-1,7-1.1,10.5c-0.2,7.9-0.2,15.8,0,23.7c0.1,3.3,0.3,6.6,0.6,9.9
			c0.1,4.6,0.3,9.2,0.7,13.8c0.3,3.8,0.6,7.7,1.2,11.5c0.5,2.9,1.3,5.7,1.6,8.6c-0.5-0.8-1.1-1.5-1.6-2.3c-0.2-0.3-0.6,0-0.5,0.3
			c0.5,0.9,1.1,1.8,1.6,2.6c0.1,0.1,0.1,0.3,0.2,0.4C294.7,790.8,294.3,790.7,294,790.5z M304.5,657c-3,11.3-6.4,22.7-8.9,34.2
			c0.3-3.9,0.8-7.9,1.6-11.8c1.5-7.2,3.4-14.4,5.7-21.4c1.1-3.4,2.5-6.5,3.9-9.6C306,651.3,305.3,654.1,304.5,657z"/>
	</g>
	<g>
		<g>
			<g>
				<path class="st18" d="M1484.1,271c2.1,6.4,6.9,11.8,12.9,14.7c2.3,1.1,4.9,1.8,7.4,1.3c3.1-0.6,5.5-2.9,7.5-5.2
					c2.6-2.9,5.1-6,6.2-9.7c1.2-3.7,0.8-8.1-1.7-11c-6-1-11.9-1.7-17.9-0.6C1492.6,261.7,1486.3,265.3,1484.1,271z"/>
			</g>
			<g>
				<path class="st19" d="M1466.4,243.1c-4-11-16-16.4-24.9-23.9c-17.8-14.8-24.1-41.8-14.9-63s33.3-34.9,56.3-32s42.9,22.2,46.5,45
					c3.6,22.7-7.4,45.1-20.6,63.9C1500.4,245.2,1481,243.8,1466.4,243.1z"/>
			</g>
			<g>
				<path class="st20" d="M1521.4,224.5c-20.4,1.2-40.6,5.3-59.9,12.3c-1.5,1.9-2.9,4.5-1.4,6.4s4.4,2.5,6.5,1.4
					c-1.2,4.8,1.2,9.7,3.6,14c1.5,2.7,3,5.4,4.5,8.2c2.8,5.1,6.5,10.8,12.3,11.1c10.8,0.5,21.1-5.3,31.1-9.4
					c1.6-0.6,3.2-1.3,4.3-2.6c1.1-1.3,1.6-3.3,0.6-4.7c-0.7-1-2-1.4-2.9-2.2c-2.1-1.5-2.8-4.3-3.1-6.8c-0.5-5.1,0.5-10.3,2.8-14.9
					c1.1-2.1,2.4-4,3.1-6.2C1523.5,228.9,1523.1,226.1,1521.4,224.5z"/>
			</g>
		</g>
		<path class="st10" d="M1450.3,123.6c-8.7,4.9-15.4,13.1-19.4,22.1c-1,2.3-2,4.6-2.9,7.1c-0.7,1.7-1.4,3.4-2.2,5.1
			c-4.7,9.1-6.1,19.3-4.3,29.5c2.3,12.7,9.5,21.3,17.5,31c3.8,4.6,7.8,8.1,12.8,11.5c2.9,1.9,6,4.8,9.3,6.5c-0.3,0.2-0.7,0.4-1,0.7
			c-1.9,1.5-3.2,3.7-2.4,6.1c1.1,3.4,4.3,3.1,7,4.2c-0.7,1.2-0.8,2.5-0.4,4c0.1,4.2,3.7,9,5.8,11.8c1.6,2.2,3.3,4.3,4.8,6.5
			c0,0,0,0.1,0.1,0.1c0.9,1.8,1.8,3.6,2.7,5.4c2.4,4.3,6.9,3.9,11.4,4c-0.1,2.9,2.5,6.1,4.3,8.1c2.8,3.3,6.6,5.3,11,4.9
			c4.6-0.5,9.9-3.4,12.6-7.1c2.9-3.9,2.7-10.2,2.9-14.9c2.7-1.7,4.8-3.8,5.2-6.5c0.2-1.5-0.2-3-1.2-4.1c-1.8-2-3.3-1.5-4-4.6
			c-0.4-2-1.7-4.2-1.9-6.2c-0.3-2.5,1.8-4.5,2-7.1c0.1-2.5,0-4.4,1.5-6.5c0.7-0.9,1.5-1.5,1.9-2.6c0.7-2,0.1-4.4-1.2-6
			c-0.5-0.7-1.2-1.2-1.8-1.7c-0.7-0.6-1.5-0.9-2.5-1.2c2.8-9.8,11.6-15.6,14.8-25.2c3.1-9.5,4-21.1,1.8-30.8
			c-3.8-16.9-14.8-34.5-29.9-43.4C1489,114.9,1465.9,114.9,1450.3,123.6z M1502.4,124.7c3.9,2.2,7.5,5,10.9,8.2
			c-5.1-4.7-11.1-8.5-17.8-11.1c-17.5-6.6-40.2-1.3-53.4,11.6c-2.1,2-4.2,4.2-6.2,6.5c2.8-4.6,6.3-8.7,10.8-12.1
			C1461.4,116.5,1486.3,115.7,1502.4,124.7z M1515,223.1c-3.9-0.1-8.9,1.2-13.3,2.6c-2.5-7.8-0.9-17.3,0.3-25.2
			c1.2-7.3,2.7-14.5,3-21.9c0.2-4.6,0.9-18.8-7.1-18.1c-3.1,0.3-6.5,2.9-9.2,6.5c-5.4-4.8-10.5-0.1-12.8,5.2c-0.5-0.8-1-1.4-1.4-1.8
			c-5.3-5.9-11.4,0-14.4,5.5c-0.3-0.4-0.5-0.7-0.7-1c-3.4-4.9-12.6-10.7-16.9-3.2c-2,3.4-0.6,7.9,0.6,11.3c2.4,6.7,6,12.9,9.8,18.9
			c4.9,7.7,10.3,15,15.6,22.4c2.4,3.3,4.8,7,8.5,8.8c-1.5,0.4-3.1,0.7-4.6,0.9c-3.2,0.5-6.6,0.3-9.6,1.3c-2.3-1.4-4.5-3.3-6.7-5
			c-1.8-1.7-3.6-3.5-5.1-5.5c-3.3-4.3-6.7-8.3-10.3-12.3c-7.6-8.6-13.2-17.9-15.5-29.3c-1.8-9,0.1-17.1,2.8-25.4
			c1.2-2.6,2.3-5.3,3.5-7.9c2-4.4,5.6-8,8.8-11.6c7.4-8.1,15.3-13,26-15.3c9.6-2.1,19.5-2.6,28.7,1.1c17.5,7,29.7,23.1,33.7,41.3
			c2.4,10.6,1.4,21.7-2.5,31.9c-2.1,5.4-4.8,10.6-7.5,15.7C1517.1,216.3,1515.4,219.5,1515,223.1z M1491.9,229.1
			c-3.9,1.1-7.9,2.3-11.9,3.4l0,0c-4.2-2.1-7-6.3-9.5-10.1c-3.9-5.8-8.1-11.4-12-17.2c-3.9-5.7-7.5-11.5-10.4-17.8
			c-1.6-3.3-3.9-7.8-3.7-11.6c0.5-7.6,8.8-4.3,12-0.6c1,1.1,1.8,2.4,2.5,3.7c-1.5,4.3-1.3,8.8,0.7,12.9c0.9,1.9,2.5,4.5,4.9,3.4
			c4.7-2,0.5-11-2.7-16.4c2-5.1,5.8-10.3,10-7.4c1.3,0.9,2.3,2.4,3.1,4c0,0.1,0,0.2-0.1,0.3c-0.5,2.5-2,16.7,4.4,12.7
			c3.4-2.1,0.9-8.7-1.8-13.4c1-4,3.1-8,7.3-7.1c1,0.2,1.8,0.7,2.5,1.3c-4.3,6.9-5.9,15.9,0.7,18.9c0.6,0.3,1.1,0,1.5-0.4
			c4.4-4.2,4.4-13.3,1-18.5c2.1-3.3,4.9-6.5,7.9-6.3c3.9,0.2,3.9,6.8,4.1,9.5c0.5,6.7-0.5,13.4-1.7,20c-1.8,10.5-5.1,23.7-1.4,34.1
			C1496.2,227.6,1493.5,228.7,1491.9,229.1z M1462.6,186.7c0.3,0.7,2.9,6.8-0.5,4.6c-1.2-0.8-1.6-4.9-1.7-6.1c0-0.7,0.1-1.7,0.3-2.8
			C1461.4,183.7,1462,185.2,1462.6,186.7z M1476.8,179.9c0.1,0.2,0.2,0.5,0.3,0.7c0.3,0.6,0.5,1.2,0.8,1.9c0-0.1,1,4.7-0.8,3.1
			C1476.2,184.9,1476.7,180.9,1476.8,179.9z M1490.1,181c-0.2,1.1-1.4,4.5-1.6,4.5c-1.1-0.1-1.9-2.2-2.1-3c-0.7-2.7,0.4-5.8,1.5-8.3
			c0.3-0.7,0.7-1.6,1.3-2.6C1490.4,174.5,1490.5,178.4,1490.1,181z M1441.8,218.4c-6.8-8.3-13.8-15.9-16.9-26.4
			c-1.5-5.2-2.2-10.9-1.8-16.6c-0.1,12,5.1,24.3,12.5,33.5c4.1,5.1,8.8,9.7,12.8,14.8c0.8,1.1,1.7,2.1,2.6,3.1
			C1447.5,224.3,1444.5,221.7,1441.8,218.4z M1461.5,239.1c0.9-1,2.3-1.5,3.9-1.8c-0.8,0.4-1.6,0.8-2.3,1.3
			c-2.2,1.5-2.2,3.6-1.1,5.3C1460.2,242.9,1459.2,241.6,1461.5,239.1z M1476,266.9c4.1,0.3,9.7-0.5,10.2-0.6
			c3.5-0.6,7.1-1.4,10.6-2.2c3.9-1,7.8-1.9,11.6-3.1c3.5-1,6.8-2.5,10.4-1.5c0.6,0.4,1.2,0.7,1.8,1c-4.7-1.1-11.1,2-15.2,2.9
			c-4.7,1-9.5,1.8-14.1,3.2c-4.7,1.4-9.6,3.2-14.5,2.2C1476.6,268.1,1476.3,267.5,1476,266.9z M1517.3,255.8c0,0.5,0,0.8-0.1,1.1
			c-2.3-0.2-5,0.7-6.9,1.3c-5.1,1.6-10.4,3-15.6,4.4c-3,0.8-13.8,4.2-19.3,3.3c-1.9-3.1-3.8-6.2-5.8-9.2c-0.1-0.2-0.3-0.4-0.4-0.6
			c3.5,2,8.8,1.6,13.1,0.8c11-2.2,22.5-10,33.7-6.1c0.2,0.1,0.3,0,0.4,0C1517,252.5,1517,253.2,1517.3,255.8z M1465.8,245.9
			c-0.1,0-0.1-0.1-0.2-0.1c0.1,0,0.2,0,0.4,0C1465.9,245.8,1465.8,245.8,1465.8,245.9z M1466.9,256.7c1.2,1.8,2.5,3.7,3.7,5.5
			C1469.3,260.5,1467.9,258.6,1466.9,256.7z M1490.3,279.1c0.1,0,0.2,0,0.2,0c0,0.2,0,0.4,0.1,0.7
			C1490.5,279.5,1490.4,279.3,1490.3,279.1z M1508,288.5c-6.6,2.8-12-0.6-15.6-5.8c2.7,2.7,7.6,4.7,10.2,4.5
			c7.6-0.6,11.3-7.7,14.2-14.1c-0.1,1.3-0.1,2.6-0.2,3.9C1516.2,282.8,1513.3,286.2,1508,288.5z M1491.1,279.1
			c4.6-0.4,8.8-2.1,13.3-3.4c2.6-0.8,6.7-1.8,10.6-3.3c-1.8,4.8-3.9,9.7-8.6,12.2C1501.6,287.2,1493.5,284.5,1491.1,279.1z
			 M1517.1,268.3c-3.8,2.1-8.1,3.4-12.3,4.7c-4.6,1.4-9.2,3.5-14,3.9c-2.7,0.2-7.6,0.4-10-1.1c-1.8-1.1-2.8-3.9-3.8-6.5
			c5.8,1.9,11.3-0.6,17.4-2.2c4.9-1.3,10-1.9,15-3.2c4.2-1.1,8.8-3.2,12.9-1.1c0,0.3,0,0.5,0,0.9
			C1521.9,265.7,1518.8,267.4,1517.1,268.3z M1517.3,243.8c-0.5,1.4-1.6,2.5-1.6,4.1c0,0.5,0.1,0.9,0.3,1.3
			c-6.7-5.4-18.3,1.2-25.2,3.4c-5.7,1.8-18.8,6.3-23.4,0.7c-1.4-2.3-2-4.7,0.4-7.3c0.2-0.2,0.2-0.4,0.1-0.5
			c7.8-1.2,14.8-4.1,22.6-6.8c7.5-2.6,20-7.5,27.9-3.1c0,0.1-0.1,0.1-0.1,0.2c-4.4-2.2-10.5-0.4-14.8,0.8c-9.5,2.6-18.4,7.3-28,9.6
			c-0.2,0.1-0.2,0.4,0,0.4c8.1-1.2,15.4-4.8,23.2-7.2c5.3-1.6,13.6-4.7,19-1.8C1517.3,239.6,1518,241.7,1517.3,243.8z M1520.3,233
			c-0.2,0.2-0.4,0.5-0.7,0.7c-4-4.3-16.4-1.3-20.4-0.3c-6.6,1.6-12.9,4.1-19.1,6.7c-2.9,1.2-5.8,2.7-8.8,3.7
			c-2.2,0.7-4.6,0.8-6.9,1.2c-1.3-1.1-2.9-2.4-2.1-4.2c0.6-1.4,2.6-2.2,3.9-2.7c1.1-0.5,2.3-0.8,3.5-1.2c1.4-0.1,2.7-0.1,3.8-0.3
			c7.4-1.3,15.4-3.7,22.4-6.2c1.6-0.6,3.4-1.4,5.4-2.2c0.1,0,0.1-0.1,0.2-0.1c3.2-1.4,6.8-2.8,10.2-3.4c1.1-0.1,2.3-0.1,3.4,0.1
			c0.1,0.3,0.4,0.4,0.7,0.4c0.3,0.2,0.8,0.3,1.2,0.1c1,0.4,1.9,0.9,2.5,1.7C1519.7,229.1,1520,231.1,1520.3,233z M1532.3,167.6
			c2,10.2,1.4,24.2-3.5,33.5c-1.4,2.6-3.1,4.9-4.8,7.1c0.2-0.3,0.3-0.6,0.5-0.9c2.4-4.7,4.7-9.5,6.2-14.6c2.8-9.7,2.9-19.6,0.5-29.3
			c-0.6-2.3-1.3-4.6-2.1-6.8C1530.4,160.3,1531.5,164,1532.3,167.6z M1528.3,155c0,0.1,0.1,0.2,0.1,0.2S1528.3,155.1,1528.3,155z"/>
	</g>
	<g>
		<g>
			<g>
				<path class="st21" d="M392.2,1409.4c-2.3-8.6-3-15.1-2.3-19.3c0.8-4.2,3.4-10.2,7.9-17.9c3.1-7.2,5.3-13.5,6.5-18.8
					s0.9-11.2-0.8-17.6c-1.9-7.1-5-12.3-9.1-15.5s-8.9-4-14.5-2.5c-4.7,1.3-8.2,4.2-10.5,8.8c-2.3,4.6-2.5,10.1-0.8,16.6l-19.1,5.2
					l-0.4-0.5c-3.2-11.1-2.3-20.8,2.8-29c5.1-8.2,13-13.8,23.7-16.7c11.6-3.2,21.6-2.2,30.1,2.8c8.4,5,14.3,13.4,17.5,25.2
					c2.3,8.4,2.4,16.6,0.3,24.6s-5.5,16.2-10.2,24.6c-2.3,4.2-3.5,7.9-3.5,11.2c0,3.2,0.8,7.8,2.3,13.5L392.2,1409.4z M423.3,1443.6
					l-20.3,5.5l-5.2-19.3l20.3-5.5L423.3,1443.6z"/>
			</g>
		</g>
		<path class="st10" d="M349,1349.6c0.1,0.2,0.4,0.4,0.7,0.5c3,0.4,6-0.5,9-0.7c3.3-0.2,7.4,0.2,9.9-2.2l0,0
			c1.7-0.5,3.3-1.1,4.9-1.9c0.3-0.2,0.5-0.6,0.4-0.9c-2-6.8-2.3-14.5,3.2-19.9c4.3-4.3,10.4-6.1,15.6-2.5
			c10.5,7.3,11.9,21.9,9.1,33.3c-1.5,6-3.3,12.4-6.5,17.7c-2.4,4-5.3,7.7-6.7,12.3c-2.2,7.5-1.7,16.7,1.9,23.7
			c0.1,0.4,0.3,0.8,0.4,1.2c0,0.1,0.1,0.2,0.2,0.3c0.1,0.2,0.2,0.4,0.5,0.6c0.1,0.3,0.4,0.5,0.8,0.3c0.1,0,0.2-0.1,0.2-0.1
			c1.2-0.1,2.7-0.8,4-1.5c2.2-0.6,4.5-1.1,6.7-1.7c2-0.6,3.9-1.3,5.9-2.1c1.6-0.3,3.1-0.7,4.6-1.3c0.4-0.1,0.6-0.4,0.7-0.7l0,0
			c0.7-0.2,0.9-1,0.4-1.5c-2.3-2.4-3.6-5-4.2-7.6c-1.2-10,5.9-22.1,9.5-30.1c3-6.6,4.5-13.4,4.9-20.4c1.1-7.4,0.7-14.8-2.6-22.2
			c-5.5-12.2-16.7-21.3-29.6-24.8c-13.9-3.8-29.3,5-39,14.4c-5.1,4.9-8.3,11.5-9,18.5c-0.6,6.1-1.2,14.1,2.3,19.6
			C348,1350.2,348.7,1350,349,1349.6z M420.6,1323.5c2.9,8.3,3.6,17.8,2.2,26.5c-1.2,7.4-4.4,13.9-7.5,20.7c-1.7,3.8-3.7,8.3-5,12.9
			c-0.9,2.8-1.4,5.6-1.3,8.4c-0.1,3.9,0.7,7.7,3,11c-0.1,0-0.2,0.1-0.3,0.1c-3.8,1.1-7.9,1.1-11.6,2.6c-1.3,0.5-5.2,3.3-7.1,3.6
			c-0.1-0.2-0.2-0.3-0.3-0.5c-1.2-3.9-2.7-7.7-2.9-11.8c-0.1-4.3,1.1-8.4,2.9-12.3c3.2-7.2,8.1-13.9,10.1-21.6
			c1.9-7.4,2.9-16.5,2.2-24c-0.6-6.3-3.3-11.7-7.3-16.5c-7.4-9-18.5-9.1-25.7,0.6c-3,4-4.2,8.9-4.1,13.9c0,0.6,0.7,3.7,0.4,4.2
			c-0.7,1.2-3.6,1.6-4.7,2c-4.7,1.5-9.5,2.7-14.1,4.3c-1.9-9.3-3.1-21,3.6-28.7c5.3-6,13.5-10.7,20.6-14.2c9-4.4,17.9-5.2,27.1-0.9
			C409.3,1307.6,417.5,1314.5,420.6,1323.5z M372.6,1327.8c-1.3,2.9-1.9,6.5-1.8,9.7c0,1.5,0.7,3.1,0.7,4.5c1,1.5,0.4,2.5-1.8,3.1
			c-1.1,0.4-2.3,0.7-3.5,0.9c-1.9,0.4-4.2,0.4-6.6,0.4c3.4-0.9,6.8-2,10.1-3.2c0.5-0.2,0.8-0.7,0.7-1.2c-1-5.3-0.9-10.8,1.7-15.6
			c2.8-5.1,8.9-10,15.1-8.9c1.4,0.2,2.6,0.7,3.8,1.4c-1.9-0.8-4-1.2-6.3-0.8C379.7,1319.1,374.8,1323.2,372.6,1327.8z M392.1,1381.5
			c-0.3,0.7-0.6,1.3-0.9,2C391.4,1382.8,391.8,1382.1,392.1,1381.5z M358.3,1310.4c6-4.6,12.7-9.2,20.1-11.3
			c3.9-1.1,7.8-1.2,11.6-0.6c-11-0.6-21.2,5.6-30.4,11.8c-2.2,1.5-4.3,3.1-6.2,4.9C354.8,1313.4,356.5,1311.8,358.3,1310.4z"/>
		<path class="st10" d="M423.4,1428.1c-0.4-3.2-1.2-6.6-5.1-5.8c-3,0.6-6.1,1.7-9.1,2.5c-1.1,0.1-2.1,0.3-3,0.4
			c-2.9,0.3-8.4,0.4-10,3.5c-0.1,0.2-0.2,0.5-0.3,0.7c-1.3,2.8,0.7,6.7,2,10.1c0.5,1.4,1.2,3.7,2.2,5.8c0.7,2.2,1.5,4.3,3,5.8
			c3.6,3.5,9.3,0.6,13.1-1c3.2-1.3,7.8-1.7,8.9-5.2c0.2-0.2,0.3-0.4,0.2-0.7c0-0.1,0-0.1,0-0.2c0-0.2,0-0.4,0-0.6
			c0-2.5-1.3-4.8-1.6-7.3C423.5,1433.5,423.7,1430.8,423.4,1428.1z M422.4,1443.1c-2.5-0.4-5.1,0.2-7.6,1c-4,1.3-9,6.9-12,1.8
			c-0.3-0.4-0.5-0.9-0.8-1.4c-0.7-2.2-1.2-4.5-2-6.6c-0.6-1.8-1.6-3.8-1.8-5.7c0.3,0.3,0.5,0.6,0.7,0.9c0.1,0.1,0.2,0,0.1-0.1
			c-0.3-0.4-0.6-0.7-0.9-1.1c0-0.7,0-1.2,0.2-1.7c4.9-2.1,10.1-2.9,15.3-4.2c0.3,0,0.6,0,0.8,0.1c4,0.5,4.7,6,6,9.1
			c0.6,1.6,1.3,3.1,1.8,4.7C422.5,1441,422.5,1442.1,422.4,1443.1z M408.2,1450.4c-0.5,0-0.9,0-1.4-0.1c0.4-0.1,0.8-0.3,1.3-0.5
			C408.1,1450,408.1,1450.2,408.2,1450.4L408.2,1450.4z M421.1,1446c-1,0.9-3.9,1.4-5.3,2c-2,0.8-4.5,2.1-6.7,2.4c0-0.1,0-0.1,0-0.2
			c-0.1-0.3-0.2-0.5-0.3-0.7c0.9-0.6,1.8-1.2,2.6-1.7c2.9-1.8,7-3.6,10.7-3.1C421.9,1445.1,421.6,1445.6,421.1,1446z M421.5,1433.3
			c0,0.1,0,0.1,0,0.2c-0.9-2.2-1.7-5.6-3.4-7.3c-0.4-0.4-0.8-0.7-1.3-0.9c0.1,0,0.2-0.1,0.2-0.1c1.5-0.6,2.8-1,3.9,1.3
			C421.7,1428.2,421.4,1431.3,421.5,1433.3z"/>
	</g>
	<g>
		<g>
			<g>
				<g>
					<path class="st22" d="M350.2,236.7c-11.9-13.3-33.4-16.7-48.9-7.9s-23.5,29.1-18.2,46.1c-7.4,1.9-12.9,10.6-15.3,17.9
						s-2.2,15.2-1.1,22.8c1.2,8.8,3.4,17.7,9,24.6c8.7,10.8,25.2,14.3,37.5,7.9c13.2,10.8,30.2,15.1,46.8,10.9
						c16.6-4.2,30.9-16.6,37.4-32.4c13.8,5.7,29.4,3.9,42.7-2.9c13.3-6.8,23.3-19.6,26.7-34.2c1.4-6,1.5-12.9-2.5-17.5
						c6.2-3.5,7.2-12.5,5.7-19.5c-1.4-7-6.4-12.9-12.3-16.8c-4.5-3-9.8-5.2-15.3-5.1c-5.5,0.1-11,2.6-13.9,7.2
						c-9.4-10.8-23.6-18.1-37.9-17.8C376.2,220.1,359.2,225.6,350.2,236.7z"/>
				</g>
				<g>
					<path class="st22" d="M444.2,359.5c-3.6,3.5-8.7,4.3-13.7-1.2c-3.5-4-3.7-10.5-0.3-14.6c2.6-3.2,7.5-7.6,11.4-6.3
						C451.8,340.8,450.1,353.7,444.2,359.5z"/>
				</g>
				<g>
					<path class="st22" d="M469.5,368.9c-2.8,1.8-6.8,1.2-9-1.3s-2.3-6.6-0.2-9.1c1.6-2,4.7-4.8,7.1-4c2.4,0.8,4.2,3.1,4.8,5.6
						C472.8,362.5,470.3,366.4,469.5,368.9z"/>
				</g>
			</g>
			<path class="st10" d="M464.4,273.2c0-0.1-0.1-0.1-0.2-0.2c5.1-1.1,8.8-9.2,9.7-13.6c1.4-7.3-1.6-14.3-6.9-19.3
				c-9.7-9.2-28.5-16.2-38.3-3.3c-4.3-4.3-8.9-8.6-14.4-11.2c-7.9-3.7-17.2-5.9-25.9-6c-14-0.2-32,4.4-38.8,17.8
				c-7.3-9.8-24.4-14.9-36-13.6c-15,1.7-27.6,15.4-30.9,29.7c-1.1,4.6-1.2,9.4-1.3,14.1c0,0.3,0,0.8,0.1,1.4
				c-0.1,1.7-0.2,3.4-0.2,5.1c-0.1,0.2-0.5,0.4-1,0.7c-7.4-0.1-13.1,7.1-15.4,13.6c-3.8,10.8-2.7,24,0.5,35.2
				c1.3,5.6,3.9,10.9,7.4,15.5c0.1,0.1,0.1,0.2,0.2,0.3s0.1,0.2,0.2,0.2l0,0c1,1.2,2.1,2.4,3.2,3.4c10.3,10.7,25.7,17.3,38.4,8.7
				c3.3,5.9,10.1,10.8,16,13.1c7.8,3.1,19.3,3.9,27.1,0.3c8.8-4.1,19.3-8,25.6-15.8c3-3.7,4.7-8.5,7.1-12.6c1.8-3,3.5-6,4.4-9.4
				c0.2-0.3,0.4-0.6,0.5-0.9c8.9,4.3,18.6,4.7,28.5,4.1c9.5-0.6,16.9-3.7,24.4-9.6c7.2-5.6,13.4-12.9,16.6-21.5
				C468,291.5,468.7,280.8,464.4,273.2z M467.2,267.9c-1.3,1.6-3,2.7-3.9,4.5c-0.1,0-0.2-0.1-0.3-0.1c1.4-2.6,4.8-5.7,6.5-7.9
				c0.1-0.1,0.2-0.3,0.3-0.5C469.1,265.3,468.2,266.7,467.2,267.9z M356.9,232.2c3.3-3.2,7.6-5,11.9-6.5c8.8-3.1,18.2-4.4,27.4-2.8
				c7.7,1.3,16.2,3.5,22.7,7.9c2.4,1.7,5.6,6.3,8.9,7.9c0.2,1,1.6,1.5,2.4,0.6c0.2,0.1,0.5,0.1,0.7-0.2c9.2-11.3,25.7-4.9,34.3,3.6
				c5.9,5.8,8.8,12.9,3.6,20.3c-2,2.8-5.9,6-6.9,9.4c-0.4,0.3-0.7,0.7-0.5,1.4c6.2,16.5-1,34.9-15.8,43.8c-3.2,1.9-6.6,3.4-10.2,4.7
				c-0.5-0.4-1.2-0.6-1.8-0.6c-0.2,0-0.4,0.3-0.1,0.5c0.3,0.1,0.6,0.3,0.9,0.5c-0.6,0.2-1.2,0.4-1.9,0.6c-1.2-0.3-2.4-0.6-3.6-0.8
				c-0.3-0.1-0.5,0.4-0.2,0.5c0.7,0.3,1.4,0.6,2.1,0.8c-0.6,0.2-1.2,0.3-1.9,0.5c-1.2-0.3-2.3-0.8-3.5-1c-0.2-0.1-0.4,0.3-0.2,0.4
				c0.7,0.4,1.4,0.8,2.1,1.1c-0.6,0.2-1.2,0.3-1.8,0.4c-1-0.8-2.2-1.2-3.3-1.9c-0.2-0.1-0.5,0.2-0.3,0.4c0.9,0.7,1.9,1.2,2.9,1.7
				c-0.7,0.2-1.4,0.3-2.1,0.5c-1.4-0.8-2.9-1.7-4.5-2.2c-0.4-0.1-0.6,0.4-0.3,0.6c1,0.5,2,1.3,3.1,1.9c-0.5,0.1-1,0.2-1.5,0.3
				c-0.6-0.2-1.1-0.5-1.6-0.8c-0.9-0.5-1.7-1-2.6-1.5c-0.3-0.1-0.5,0.2-0.3,0.4c0.6,0.8,1.5,1.6,2.5,2.1c-0.6,0.1-1.1,0.1-1.7,0.2
				c-1.5-0.7-2.7-1.8-4.2-2.8c-0.3-0.2-0.5,0.2-0.3,0.4c0.8,0.8,1.7,1.8,2.7,2.5c-0.5,0-1,0-1.5,0c-1.3-1.3-3.1-2.2-4.6-3.2
				c-0.3-0.2-0.5,0.3-0.3,0.4c1.3,0.9,2.6,1.8,3.9,2.7c-0.9,0-1.7-0.1-2.5-0.2c-1.4-1.5-3.3-2.6-4.8-4c-0.3-0.3-0.7,0.1-0.5,0.5
				c1.1,1.2,2.3,2.3,3.6,3.3c-0.8-0.1-1.5-0.3-2.3-0.5c-1.9-1-3.1-2.7-4.3-4.4c-0.2-0.3-0.7-0.1-0.6,0.3c0.4,1,1,2.2,1.9,3.2
				c-0.2-0.1-0.4-0.1-0.5-0.2c-0.3-0.5-1-0.9-1.3-1.3c-0.6-0.7-1.1-1.5-1.5-2.3c-0.1-0.2-0.5-0.1-0.4,0.2c0.3,0.9,0.8,1.8,1.4,2.6
				c0,0,0,0.1,0.1,0.1c-0.6-0.3-1.1-0.6-1.7-0.9c-0.5-0.8-1.2-1.6-1.9-2.2c-0.2-0.2-0.5,0.1-0.4,0.3c0.2,0.3,0.4,0.6,0.6,0.9
				c-0.6-0.3-1.4,0-1.7,0.6c-4.8,7-7.4,15.1-14,20.8c-7.2,6.1-15.3,12.1-24.3,15c-0.6,0.2-1.3,0.4-2,0.5c0,0,0,0,0-0.1
				c-0.4-0.4-0.8-0.5-1.3-0.4c-0.4,0.1-0.3,0.6,0,0.7c0,0,0.1,0,0.1,0.1c-0.6,0.1-1.2,0.2-1.9,0.3c-0.8-0.4-1.6-0.7-2.3-0.9
				c-0.3-0.1-0.4,0.3-0.2,0.4c0.4,0.3,0.8,0.5,1.2,0.7c-0.5,0.1-1,0.1-1.4,0.1c-1.3-0.5-2.5-1.2-3.7-2c-0.2-0.2-0.5,0.2-0.3,0.4
				c0.6,0.6,1.3,1.2,2.1,1.8c-0.7,0-1.5,0-2.2,0c-0.3-0.1-0.5-0.2-0.8-0.4c-0.9-0.5-1.6-1.2-2.3-2c-0.2-0.2-0.4,0-0.3,0.2
				c0.3,0.7,0.9,1.5,1.6,2.1c-0.6,0-1.2-0.1-1.9-0.1c-0.9-0.8-1.8-1.6-2.7-2.4c-0.1-0.1-0.4,0-0.3,0.2c0.6,0.7,1.1,1.5,1.8,2.1
				c-0.6-0.1-1.2-0.1-1.8-0.2c-1.1-1-2-2.2-2.9-3.4c-0.2-0.3-0.7,0-0.5,0.3c0.6,1,1.2,2,1.9,2.9c-0.6-0.1-1.1-0.2-1.7-0.3
				c-1-1.3-2.1-2.6-3-4.1c-0.2-0.3-0.7,0-0.5,0.3c0.6,1.2,1.3,2.4,2.1,3.5c-0.7-0.2-1.4-0.3-2.1-0.6c-0.9-1.3-1.7-2.7-2.3-4.2
				c-0.1-0.3-0.6-0.2-0.5,0.1c0.4,1.3,1,2.6,1.8,3.8c-0.7-0.2-1.4-0.5-2-0.7c-0.8-1.5-1.7-3-2.2-4.7c-0.1-0.3-0.5-0.2-0.5,0.1
				c0.3,1.4,0.9,2.8,1.7,4.1c-0.6-0.2-1.2-0.5-1.7-0.8c-0.6-1.6-1.6-3.1-2.5-4.6c-0.2-0.3-0.7-0.1-0.6,0.2c0.4,1.2,0.9,2.4,1.5,3.5
				c-0.7-0.4-1.3-0.8-1.9-1.2c-0.2-0.3-0.4-0.6-0.5-0.9c-0.5-1.1-0.9-2.3-1.3-3.5c-0.1-0.3-0.5-0.2-0.5,0.1c0.2,1.1,0.5,2.2,0.8,3.2
				c-0.6-0.5-1.1-1-1.6-1.5c-0.5-1.2-0.8-2.4-1-3.8c0-0.3-0.5-0.3-0.5,0c0,0.7,0.1,1.5,0.2,2.2c-0.3-0.4-0.6-0.8-0.8-1.2
				c-0.2-0.7-0.3-1.4-0.4-2.1c0-0.2-0.4-0.3-0.4,0c0,0.3,0.1,0.6,0.1,0.8c-0.1-0.2-0.2-0.4-0.3-0.6c-0.3-0.6-1.1-0.6-1.5-0.2h-0.1
				c-3.8,1.5-7.9,1.5-12,1.4c-4.3-0.1-9-0.1-13.1-1.1c-0.4-0.1-0.8-0.2-1.1-0.3c-0.1-0.2-0.2-0.3-0.2-0.5c-0.1-0.3-0.6-0.1-0.5,0.2
				c-0.3-0.1-0.6-0.2-0.9-0.4c-0.4-0.6-0.8-1.2-1.1-1.8c-0.1-0.2-0.5,0-0.4,0.2c0.2,0.4,0.4,0.8,0.6,1.2c-0.4-0.2-0.7-0.3-1-0.5
				c0-0.1-0.1-0.2-0.1-0.4c-0.2-0.6-0.5-1.3-0.8-1.9c-0.1-0.2-0.5-0.1-0.4,0.2c0.2,0.5,0.3,1,0.4,1.5c-0.4-0.2-0.7-0.4-1.1-0.6
				c-0.3-0.8-0.6-1.5-0.9-2.3c-0.1-0.3-0.6-0.3-0.6,0.1c0.1,0.5,0.1,1,0.3,1.4c-0.1-0.1-0.2-0.1-0.3-0.2c-0.2-1.1-0.6-2.2-0.7-3.2
				c0-0.3-0.5-0.3-0.5,0c0,0.8,0,1.6,0.2,2.5c-0.6-0.5-1.2-1-1.8-1.5c-0.2-1-0.2-2.1-0.2-3.2c0-0.2-0.3-0.2-0.3,0
				c0,0.6-0.2,1.5-0.2,2.5c-0.6-0.6-1.2-1.2-1.8-1.9c0-0.1,0-0.1,0-0.2c-0.1-1.1-0.2-2.1-0.4-3.2c-0.1-0.3-0.6-0.2-0.6,0.1
				c0.1,0.7,0.1,1.5,0.1,2.2c-0.4-0.6-0.8-1.1-1.2-1.7c0-0.1,0-0.1,0-0.2c0.1-1.1,0-2.1-0.4-3.2c-0.1-0.2-0.4-0.1-0.4,0.1
				c0.2,0.7,0.2,1.5,0.1,2.3c-0.2-0.3-0.3-0.5-0.5-0.8c0-1.6-0.2-3.2-0.2-4.8c0-0.2-0.4-0.2-0.4,0c0,1.1-0.1,2.2-0.2,3.4
				c-0.2-0.5-0.5-0.9-0.7-1.4c0-1.7-0.1-3.4-0.2-5c0-0.3-0.5-0.3-0.5,0c0,1.1-0.1,2.2-0.1,3.3c-0.3-0.6-0.5-1.2-0.7-1.8
				c0.2-2,0.4-4,0.8-6c0-0.2-0.3-0.3-0.3-0.1c-0.3,1.5-0.7,3.1-0.9,4.7c-0.2-0.6-0.4-1.2-0.5-1.7c0.7-1.8,0.3-4.4,0.1-6.2
				c0-0.3-0.4-0.3-0.5,0c-0.1,1.1-0.2,2.3-0.3,3.4c0,0.1,0,0.1,0,0.2c-0.2-0.8-0.3-1.6-0.5-2.3c0-0.1,0-0.2,0-0.3
				c0.2-1.5,0.4-3,0.5-4.5c0-0.3-0.5-0.4-0.5-0.1c-0.2,0.7-0.3,1.3-0.4,2c-0.8-6.4-0.5-13,0.7-19c1.5-7.9,7.4-19.3,15.8-21.6
				c0.6-0.2,0.9-0.7,0.9-1.2c0.4-10-0.2-20.1,4.6-29.2c2.5-4.8,6.1-9.2,10.4-12.7c5.4-2.8,12-4.3,18-4.2c0.1,0.1,0.1,0.1,0.2,0.2
				c0.1,0.1,0.3,0,0.3-0.2c1.7,0,3.4,0.2,4.9,0.5c5.4,1,10.3,3.5,15.3,5.6c4.4,1.9,8.8,3,11.7,7.1c0.3,0.4,1.1,0.2,0.9-0.4
				c0.2-0.1,0.4-0.2,0.6-0.5C352.7,238,354.2,234.8,356.9,232.2z M324.4,227.1c0.2,0.2,0.4,0.4,0.7,0.6c0.2,0.2,0.5-0.2,0.3-0.4l0,0
				c0.9,0.2,1.7,0.4,2.6,0.6c0.1,0.1,0.2,0.2,0.3,0.4c0.4,0.5,0.7,1,1.2,1.5c-2.5-0.9-5.1-1.7-7.8-2.1c-0.5-0.4-1-0.8-1.5-1.2
				C321.6,226.6,323,226.8,324.4,227.1z M330,228.4c0.5,0.7,1,1.4,1.5,2.1c-0.2-0.1-0.5-0.2-0.7-0.3c0-0.1,0-0.1,0-0.2
				c-0.4-0.7-1-1.3-1.6-1.9C329.4,228.3,329.7,228.4,330,228.4z M333.6,229.5c0.3,0.7,0.7,1.5,1.1,2.2c0.1,0.1,0.1,0.2,0.2,0.4
				c-0.6-0.3-1.2-0.5-1.8-0.8c0,0-0.1,0-0.1-0.1c-0.4-0.4-0.8-0.8-1.1-1.2c-0.4-0.4-0.7-0.9-1.1-1.4
				C331.7,228.9,332.6,229.2,333.6,229.5z M346.9,237.1c0.1,0.2,0.2,0.5,0.3,0.7c-0.2-0.1-0.3-0.3-0.5-0.4c-0.1,0-0.1-0.1-0.2-0.1
				c-0.4-0.4-0.7-0.9-1.1-1.4c-0.2-0.3-0.4-0.6-0.5-0.9c0.7,0.5,1.4,1.1,2.1,1.7C347,236.8,346.9,236.9,346.9,237.1z M344.9,236.4
				c-0.5-0.2-0.9-0.4-1.4-0.7c0.2,0,0.3,0.1,0.5,0.1c0.4,0,0.5-0.4,0.2-0.6c-0.4-0.3-0.8-0.4-1.2-0.7c-0.4-0.3-0.8-0.8-1.1-1.2
				c-0.1-0.1-0.1-0.2-0.2-0.3c0.8,0.4,1.6,0.9,2.4,1.4C344.3,235.1,344.5,235.8,344.9,236.4z M341.6,234.1c0.4,0.5,0.8,1.1,1.4,1.4
				c-0.5-0.2-1-0.4-1.5-0.6c-0.4-0.2-0.8-0.3-1.2-0.5c0.1-0.1,0.2-0.2,0.1-0.3c-0.3-0.9-1.3-1.6-1.8-2.4c-0.1-0.1-0.2-0.3-0.3-0.4
				c0.8,0.3,1.5,0.7,2.3,1.1C340.9,233,341.3,233.6,341.6,234.1z M338,232.4c0.3,0.5,0.7,1.1,1.2,1.6c-0.8-0.4-1.7-0.7-2.5-1.1
				c-0.7-0.6-1.3-1.2-1.8-2c-0.2-0.3-0.4-0.7-0.5-1c0.9,0.3,1.8,0.7,2.8,1C337.4,231.4,337.7,231.9,338,232.4z M349.1,238.6
				c-0.1,0.2-0.2,0.5-0.3,0.7l-0.1-0.1c-0.4-0.7-0.7-1.3-1.1-2C348.2,237.7,348.7,238.1,349.1,238.6z M318.8,226.4
				c0.4,0.4,0.9,0.8,1.3,1.2c-1.2-0.1-2.5-0.2-3.9-0.1c-0.4-0.4-0.8-0.7-1.2-1C316.3,226.3,317.5,226.3,318.8,226.4z M314.4,226.4
				c0.3,0.3,0.6,0.7,0.9,1c-1,0-2,0.1-3,0.2c-0.4-0.2-0.9-0.4-1.2-0.7C312.2,226.7,313.3,226.5,314.4,226.4z M310.5,227
				c0.2,0.3,0.4,0.5,0.7,0.7c-1.9,0.3-3.9,0.6-5.8,1.2c0.8-0.4,1.7-0.8,2.5-1.1C308.8,227.5,309.6,227.3,310.5,227z M263.9,297.4
				c1-8.3,5.6-21.4,15.5-22.2c-0.6,0.3-1.2,0.6-1.5,0.8c-5.5,4.1-9.9,10.8-12,17.3c-2,6-2.3,12.8-1.9,19.4
				C263.4,307.5,263.3,302.3,263.9,297.4z M283.5,347.7c2.6,1.3,5.3,2.1,8.3,2.4c6.8,0.7,15.6,2,22.1-0.7c0.2,0.4,0.3,0.8,0.5,1.2
				C304.6,357.3,292.9,354.4,283.5,347.7z M382.4,349c-5.5,6.5-13.8,9.4-21.1,13.1c-4.6,2.3-8.5,3.8-13.7,3.8
				c-4.4,0-8.9-0.1-13.1-1.2c-6-1.6-11.4-5.2-15.6-9.8c8.6,7.7,24.3,9.3,34.3,7.3c9.9-2,18.6-8,26.4-14.2c2.8-2.2,5.4-4.5,7.5-7.2
				C385.7,343.7,384.4,346.6,382.4,349z M396.2,325.4c1.1,0.7,2.3,1.3,3.4,1.8c-1.2-0.4-2.4-0.9-3.7-1.4
				C396,325.7,396.1,325.5,396.2,325.4z M446.1,321.5c-7.6,5.7-15.6,7.9-25.1,8.2c-1.4,0-2.8,0-4.2,0c0.5-0.1,1-0.1,1.5-0.2
				c10.1-1.5,21.2-4.7,29.9-10.2c13.2-8.5,20.4-24.6,17.5-39.9c1.9,7.4,0.6,16-2.4,22.5C459.6,309.8,453.1,316.3,446.1,321.5z"/>
			<path class="st10" d="M439.4,334.6c-3.5,0.5-6.4,3-8.4,6c-4.2,4.7-5,13.4-0.2,17.5c4.2,3.6,10.1,4.1,14.5,0.7s8.2-9.7,6.6-15.4
				C450.6,338.6,444.6,333.8,439.4,334.6z M444.7,337.6c-2.1-0.8-4.1-0.7-6.1-0.2c-0.7-0.1-1.3,0-1.9,0c0.7-0.4,1.4-0.7,2.1-0.9
				C440.8,336.1,442.9,336.6,444.7,337.6z M430.4,354.9c-0.9-1.4-1.3-2.9-1.3-4.5c1.8,5.8,9.1,9.2,14.9,6.7
				C439.6,360.1,433.9,360.4,430.4,354.9z M450.1,347.8c-0.4,2.8-2,5.4-4,7.5c-0.1,0-0.2,0-0.3,0c-7.6,6-18.4-1.5-15.1-10.7
				c0.1-0.1,0.1-0.3,0.2-0.4c1.5-2.5,3.7-4.6,6.2-5.6c2.5-0.7,4.8-1.2,7.5-0.1c3,1.3,4.5,3.8,5.5,6.8
				C450.2,346.1,450.3,347,450.1,347.8z"/>
			<path class="st10" d="M467.9,352.1c-6.4-1-12.5,8-10.4,13.7c1.8,5.1,10.9,6.3,14.5,2.3c0.6-0.5,1.1-1.1,1.6-1.8
				C476.4,361.4,473.9,353,467.9,352.1z M459,363.7c-0.1-1.2,0.2-2.4,0.7-3.6c-0.1,1.8,0.1,3.7,0.7,4.8c0.8,1.5,2,2.7,3.5,3.5
				C461.2,368.2,459.1,366.8,459,363.7z M472.2,364.5c-0.2-0.1-0.4-0.1-0.4,0.2c0,0.2,0,0.4,0,0.7c-0.2,0.4-0.5,0.8-0.8,1.1
				c-0.1-0.1-0.1-0.2-0.2-0.4c-0.2-0.6-0.5-1.2-0.8-1.7c-0.1-0.2-0.5-0.1-0.4,0.2c0.2,0.8,0.3,1.7,0.6,2.5v0.1
				c-0.3,0.2-0.6,0.4-1,0.5c0-0.1-0.1-0.2-0.1-0.3c-0.4-1.1-0.8-2.3-1.1-3.4c-0.1-0.2-0.5-0.2-0.5,0.1c0.1,1.1,0.2,2.2,0.6,3.3
				c0,0.1,0.1,0.3,0.1,0.5c-0.3,0-0.7,0-1,0c-0.2-1.6-0.4-3.2-1-4.6c-0.1-0.2-0.4-0.2-0.5,0.1c-0.1,1.4,0.1,2.9,0.3,4.3
				c-0.3-0.1-0.6-0.2-0.9-0.4c0-0.8,0-1.9,0-2c0-1-0.1-2.1-0.2-3.1c0-0.3-0.4-0.3-0.5,0c-0.1,1.3-0.2,2.6-0.2,3.8
				c0,0.2,0,0.5-0.1,0.8c-0.2-0.1-0.4-0.3-0.5-0.4l0,0c0-0.1,0-0.1-0.1-0.2c-0.2-2,0.1-4.1,0.1-6.1c0-0.3-0.5-0.3-0.5,0
				c-0.1,1.8-0.5,3.6-0.4,5.4c-0.2-0.2-0.4-0.4-0.5-0.7c0.3-2.1,0.7-4.2,0.7-6.2c0-0.4-0.5-0.3-0.5,0c-0.2,1.5-0.7,2.9-1,4.4
				c-0.1-0.2-0.1-0.4-0.1-0.6c0.1-0.2,0.1-0.3,0.2-0.5c0.2-0.6,0.4-1.2,0.6-1.8c0.3-1,0.5-2.1,0.6-3.1c0-0.1-0.1-0.2-0.2-0.2
				c0.2-0.3,0.3-0.7,0.5-1c0.1,0,0.1-0.1,0.2-0.1l0.1-0.1c0.3-0.2,0.7-0.3,1.1-0.4c0.2,0,0.2-0.4,0-0.5l0,0c2.5-1.4,5.4-1.1,7.4,2.3
				C473,359.3,473.1,362.3,472.2,364.5z"/>
		</g>
		<g>
			<text transform="matrix(0.9731 -0.2303 0.2303 0.9731 292.1373 312.6015)" class="st3 st4 st23 st24">x</text>
			<text transform="matrix(0.9731 -0.2304 0.2304 0.9731 309.4799 295.8998)" class="st3 st4 st25 st26">3</text>
			<text transform="matrix(0.9731 -0.2303 0.2303 0.9731 325.1043 304.7983)" class="st3 st4 st23 st24">+3y=42</text>
		</g>
	</g>
</g>
<g id="Layer_1_1_">
	<g>
		<g>
			<path class="st27" d="M3543.2,1784.3H493.6c-5.4,0-10,2.3-10.4,5.2c-0.4,3.3,4.3,6,10,6h3049.9c5.5,0,10-2.5,10-5.6l0,0
				C3553.2,1786.9,3548.7,1784.3,3543.2,1784.3z"/>
		</g>
		<g>
			<ellipse class="st2" cx="2524.2" cy="624.9" rx="92" ry="92"/>
			
				<ellipse transform="matrix(0.9999 -1.209497e-02 1.209497e-02 0.9999 -7.3721 30.5762)" class="st2" cx="2524.2" cy="624.8" rx="89.6" ry="89.6"/>
			<path class="st28" d="M2591.9,596.9c15.6,37.3-1.9,80.1-39.2,95.7c-37.3,15.6-80.1-1.9-95.7-39.2c-15.6-37.3,1.9-80.1,39.2-95.7
				C2533.4,542.1,2576.3,559.6,2591.9,596.9z"/>
			<path class="st28" d="M2551.1,688.8c-35.3,14.8-76-1.9-90.7-37.1c-14.8-35.3,1.9-76,37.1-90.7c35.3-14.8,76,1.9,90.7,37.1
				C2603,633.3,2586.3,674,2551.1,688.8z"/>
			<g>
				<path class="st2" d="M2467.5,644.6l-11.4,4.8c-1.9,0.8-2.8,3-2,4.8c0.8,1.9,3,2.8,4.8,2l11.4-4.8c1.9-0.8,2.8-3,2-4.8
					C2471.6,644.7,2469.4,643.8,2467.5,644.6z"/>
				<path class="st2" d="M2546,676.7c-1.9,0.8-2.8,3-2,4.8l4.8,11.4c0.8,1.9,3,2.8,4.8,2c1.9-0.8,2.8-3,2-4.8l-4.8-11.4
					C2550.1,676.8,2547.9,675.9,2546,676.7z"/>
				<path class="st2" d="M2589.6,593.4l-11.4,4.8c-1.9,0.8-2.8,3-2,4.8c0.8,1.9,3,2.8,4.8,2l11.4-4.8c1.9-0.8,2.8-3,2-4.8
					C2593.7,593.5,2591.5,592.6,2589.6,593.4z"/>
				<path class="st2" d="M2494.9,554.6c-1.9,0.8-2.8,3-2,4.8l4.8,11.4c0.8,1.9,3,2.8,4.8,2c1.9-0.8,2.8-3,2-4.8l-4.8-11.4
					C2498.9,554.7,2496.7,553.8,2494.9,554.6z"/>
			</g>
			<g>
				<path class="st2" d="M2520.6,523.5l1-14.5c0.1-1.2,1.1-2.1,2.3-2l16.7,1.2c1.2,0.1,2.1,1.1,2,2.3l-1,14.5
					c-0.1,1.2-1.1,2.1-2.3,2l-16.7-1.2C2521.4,525.7,2520.5,524.7,2520.6,523.5z"/>
			</g>
			<g>
				<path class="st2" d="M2455.6,551.1l-11.1-9.5c-0.9-0.8-2.3-0.7-3,0.2l-10.8,12.7c-0.8,0.9-0.7,2.3,0.2,3l11.1,9.5
					c0.9,0.8,2.3,0.7,3.1-0.2l10.8-12.7C2456.6,553.2,2456.5,551.9,2455.6,551.1z"/>
			</g>
			<g>
				<path class="st2" d="M2473.5,527.3c-1.1,0.4-2.3-0.1-2.8-1.1l-4-9.7c-0.4-1.1,0.1-2.3,1.1-2.8l19.7-8.3c1.1-0.4,2.3,0.1,2.8,1.1
					l4,9.7c0.4,1.1-0.1,2.3-1.1,2.8L2473.5,527.3z"/>
				<path class="st2" d="M2478.6,530.8c-9.6,0.7-19-4.7-23-14c-4.9-11.7,0.6-25.2,12.3-30.1s25.2,0.6,30.1,12.3
					c3.9,9.4,1.2,19.9-6.1,26.2l2.2,5.2c10-7.7,14-21.4,8.9-33.6c-6.1-14.5-22.8-21.3-37.3-15.3c-14.5,6.1-21.3,22.8-15.3,37.3
					c5.1,12.2,17.7,18.9,30.2,17.2L2478.6,530.8z"/>
				<path class="st2" d="M2488,538.3c2.3-1,4.6-1.8,6.9-2.6l-5.8-13.9l-10.9,4.6l5.8,13.8C2485.3,539.4,2486.7,538.8,2488,538.3z"/>
			</g>
			<g>
				<path class="st2" d="M2530.5,622.1c1.4,3.4-0.2,7.4-3.6,8.8c-3.4,1.4-7.4-0.2-8.8-3.6c-1.4-3.4,0.2-7.4,3.6-8.8
					C2525.1,617,2529.1,618.6,2530.5,622.1z"/>
				<path class="st2" d="M2531.5,569.5l-4.8,55.4c-0.1,1.4-1.4,2.4-2.7,2.3c-1.4-0.1-2.4-1.4-2.3-2.7
					C2521.6,624.3,2521.2,626.7,2531.5,569.5z"/>
				<path class="st2" d="M2573,652.1l-49.7-25c-1.3-0.6-1.8-2.2-1.1-3.4c0.6-1.3,2.2-1.8,3.4-1.1
					C2525.8,622.7,2523.7,621.4,2573,652.1z"/>
				<path class="st2" d="M2526.8,623.6c0.6,1.4-0.1,3-1.5,3.6s-3-0.1-3.6-1.5s0.1-3,1.5-3.6C2524.6,621.5,2526.2,622.2,2526.8,623.6
					z"/>
			</g>
		</g>
		<g>
			<path class="st29" d="M3208.3,1022.9c-0.7-0.8-1.7-1.1-2.7-0.8c-4.9,1.3-13.7-0.6-18-2.2l-4.7-23.5c3.4-3.1,10.8-8.3,15.8-9
				c1-0.1,1.9-0.8,2.2-1.8l6-17.8c0.3-1,0.1-2-0.7-2.8c-3.6-3.6-6.3-12.2-7.1-16.7l17.9-15.8c4.4,1.4,12.6,5.2,15.7,9.2
				c0.6,0.8,1.7,1.2,2.7,1l18.4-3.7c1-0.2,1.8-1,2.1-2c1.3-4.9,7.4-11.5,10.9-14.5l22.7,7.6c1,4.5,1.8,13.5-0.1,18.1
				c-0.4,0.9-0.2,2,0.5,2.8l12.4,14.1c0.7,0.8,1.7,1.1,2.7,0.8c4.9-1.3,13.7,0.6,18,2.2l4.7,23.5c-3.4,3.1-10.8,8.3-15.8,9
				c-1,0.1-1.9,0.8-2.2,1.8l-6,17.8c-0.3,1-0.1,2,0.7,2.8c3.6,3.6,6.3,12.2,7.1,16.7l-17.9,15.8c-4.4-1.4-12.6-5.2-15.7-9.2
				c-0.6-0.8-1.7-1.2-2.7-1l-18.4,3.7c-1,0.2-1.8,1-2.1,2c-1.3,4.9-7.4,11.5-10.9,14.5l-22.7-7.6c-1-4.5-1.8-13.5,0.1-18.1
				c0.4-0.9,0.2-2-0.5-2.8L3208.3,1022.9z M3259.9,1017.2c12.8-2.6,21-15,18.4-27.8s-15-21-27.8-18.4s-21,15-18.4,27.8
				C3234.7,1011.5,3247.1,1019.7,3259.9,1017.2z M3262.9,1032c20.9-4.2,34.5-24.6,30.3-45.6s-24.6-34.5-45.6-30.3
				c-20.9,4.2-34.5,24.6-30.3,45.6C3221.5,1022.6,3241.9,1036.2,3262.9,1032z"/>
			<path class="st2" d="M3360.6,1106.9c0.2-0.8,0.8-1.4,1.6-1.5l14.6-2.9c0.8-0.2,1.6,0.1,2.1,0.8c2.4,3.2,8.9,6.1,12.4,7.2
				l14.2-12.5c-0.7-3.6-2.8-10.4-5.6-13.2c-0.6-0.6-0.8-1.4-0.5-2.2l4.7-14.1c0.3-0.8,0.9-1.3,1.7-1.4c3.9-0.5,9.8-4.7,12.5-7.1
				l-3.8-18.6c-3.4-1.2-10.4-2.8-14.3-1.7c-0.8,0.2-1.6,0-2.2-0.6l-9.9-11.2c-0.5-0.6-0.7-1.5-0.4-2.2c1.5-3.7,0.8-10.8,0.1-14.4
				l-18-6c-2.8,2.4-7.6,7.6-8.6,11.5c-0.2,0.8-0.8,1.4-1.6,1.5l-14.6,2.9c-0.8,0.2-1.6-0.1-2.1-0.8c-2.4-3.2-8.9-6.1-12.4-7.2
				l-14.2,12.5c0.7,3.6,2.8,10.4,5.6,13.2c0.6,0.6,0.8,1.4,0.5,2.2l-4.7,14.1c-0.3,0.8-0.9,1.3-1.7,1.4c-3.9,0.5-9.8,4.7-12.5,7.1
				l3.8,18.6c3.4,1.2,10.4,2.8,14.3,1.7c0.8-0.2,1.6,0,2.2,0.6l9.9,11.2c0.5,0.6,0.7,1.5,0.4,2.2c-1.5,3.7-0.8,10.8-0.1,14.4l18,6
				C3354.8,1116,3359.6,1110.7,3360.6,1106.9z M3365.7,1084.5c-12.6,2.5-24.8-5.6-27.4-18.2c-2.5-12.6,5.6-24.8,18.2-27.4
				c12.6-2.5,24.8,5.6,27.4,18.2C3386.4,1069.7,3378.2,1082,3365.7,1084.5z"/>
		</g>
		<path class="st30" d="M2333.9,811.7l-16.2-6.1l-14.2,9.9c-1.6,1.1-3.8-0.1-3.7-2.1l0.8-17.3l-13.8-10.5c-1.6-1.2-1.1-3.7,0.8-4.2
			l16.7-4.6l5.7-16.4c0.6-1.9,3.2-2.2,4.2-0.5l9.5,14.5l17.3,0.4c2,0,3,2.3,1.8,3.9l-10.8,13.5l5,16.6
			C2337.6,810.6,2335.7,812.4,2333.9,811.7z"/>
		<polygon class="st2" points="2358.7,708 2349.9,684.3 2327.3,691.1 2317.6,668.1 2295.2,671.9 2285.1,655.9 2277.1,661 
			2290.5,682.4 2311.7,678.8 2321.8,702.7 2344,696.1 2352,717.5 		"/>
		<polygon class="st2" points="3306.9,817 3284.7,804.9 3272,824.8 3249.7,813.8 3235.2,831.3 3217.2,825.8 3214.4,834.9 
			3238.6,842.3 3252.2,825.7 3275.5,837.1 3287.9,817.6 3308,828.6 		"/>
		<polygon class="st30" points="2722.7,518.6 2713.2,542 2734.4,552.3 2726.1,575.8 2745.1,588.1 2741.8,606.7 2751.2,608.4 
			2755.7,583.5 2737.6,571.8 2746.3,547.4 2725.4,537.3 2734,516.1 		"/>
		<polygon class="st30" points="3281.5,1122.4 3276.8,1113.3 3266.3,1113.6 3261.8,1103 3250.8,1106.8 3245.1,1094.9 3234.5,1097.2 
			3227.3,1086.7 3231.2,1084 3236.7,1091.8 3247.9,1089.4 3253.3,1100.8 3264.5,1096.9 3269.5,1108.7 3279.7,1108.3 3284,1116.8 
			3290.7,1115.2 3291.9,1119.9 		"/>
		<polygon class="st29" points="3087.5,697.2 3082.6,682.6 3105.2,672.1 3100.6,649.9 3116.3,639.3 3110.9,631.4 3090,645.6 
			3094.3,666.6 3070.8,677.5 3078.2,699.5 		"/>
		<g>
			<path class="st30" d="M3268.6,663.5c24.9,38.1-9,91-53.4,83.1c-8-1.4-16.3,0.4-23.4,4.8l-24.5,15.1c-6.8,4.2-15.3,2.4-19.5-4.2
				l-9.4-14.4c-4.3-6.5-2.9-15.6,3.2-20.8c22.2-19,31.6-24.4,34.6-40.3C3184.9,640.3,3243.6,625.4,3268.6,663.5z"/>
			<g>
				<path class="st2" d="M3210,684.5c-0.5-2.1-1-4.4-1.2-6.7c-1.1-13.3,9.2-17.9,14.6-14.5c3.5,2.2,4.9,7.3,2.9,12.1
					c-1.8,4.3-5.7,7.5-9.6,10.9c2.1,7.4,5.4,14.2,9.9,20.3c12.1-7.3,20.8-3.3,21.4,3.3c0.4,4.2-2.4,8.6-6.5,10.4
					c-2.5,1.1-8.8,2.5-16.3-5.8c-20.5,14.4-47.2,35.8-47.3,35.9l-3.4-4.7c0.1-0.1,26.7-21.3,47.1-35.7c-4.2-5.8-7.5-12.3-9.8-19.3
					c-23.3,20.4-43.9,36.5-44.6,37.1l-3.4-4.7C3165.2,721.8,3185.2,706.3,3210,684.5z M3219.9,668.3c-1.8-0.7-6.6,1.3-4.7,11.7
					C3220.6,675.2,3222.3,673.1,3219.9,668.3z M3230.3,711.2c3,3.1,7.5,5.9,10.5,2.6C3244.8,709.4,3239.2,706.2,3230.3,711.2z"/>
			</g>
			<path class="st2" d="M3192.4,751.1c-0.2,0.1-0.4,0.2-0.6,0.4l-24.5,15.1c-6.8,4.2-15.3,2.4-19.5-4.2l-9.4-14.4
				c-4.3-6.5-2.9-15.6,3.2-20.8c9.9-8.5,17.2-14.2,22.6-19.4L3192.4,751.1z"/>
		</g>
		<g>
			<g>
				<g>
					<path class="st31" d="M622.8,1463.5c0,0-0.8-3.9-1-5.2c-0.2-1.5-0.4-6.2-0.4-6.2s0-16.3,1.2-16.2s2.8,2.9,3.1,3.9
						c0.4,1,0.9,2.1,1.2,3.2c0.4,1,1.4,1.6,2.7,1.2s0.7-4.7,0.3-6.1c-1.5-4.5-8-15.8-8.6-17.1c-0.7-1.5,4.5-29.7,5.5-39.6l0,0
						c2.1-16,5.1-32.4,5.4-34.1l28.6-63.2l-19.1-19.5c0,0-32.7,69.6-33.9,73.3c-0.6,1.7-2.7,39.3-2.6,39.3
						c0.1,18.6,0.3,34.9,0.3,38.1c0,0-2.7,9.4-4.8,15.2c-2.1,5.9-1.6,12.1-1.9,13.8c0,0.3-1.5,6.2-0.5,13.6c0.9,6.4,3-0.1,3-0.1
						s0.5-12.1,1.5-11.9c0.7,0.2,0,6.8,0.9,13.8c0.2,1.8,0.5,3.6,0.7,5.3c0.6,4.3,3.4,5.2,3.5,0.5c0-1.6,0-4.3-0.2-6.3
						c-0.3-2.1,0.1-4.1,0.1-5.9c0-3.6,0-6.2,0.2-6.1s0.7-0.6,1,1.3c0.4,2.3,0,7.4,0.8,10.8c0.5,1.9,1.1,5.9,1.1,5.9s1.9,6.4,2.2,6.4
						c2.1-0.1,2.1-5.1,1.2-7.6c0.2-1.9-0.6-6.1-0.6-6.1s0.2-9,1.5-9c1,0,4.7,21.5,6.8,21.2C623.6,1470.1,622.8,1463.5,622.8,1463.5z
						"/>
				</g>
				<path class="st32" d="M649,1320.7c0,0-11.9-2-18.2-4.4c-8.4-3.1-13.9-5.9-13.9-5.9s9.2-39.4,20.7-63.3
					c4.7-9.9,9.5-14.7,16.2-15.8c0,0,14.1,9.3,13.6,31.6C667.4,1268.2,649,1320.7,649,1320.7z"/>
				<g>
					<path class="st31" d="M685.5,1453.2l15.4,141.4c0,0-7.5,29.9-6.6,38.4s16.7,119.9,16.7,119.9l-0.7,6.3v18.5h58.6
						c0,0-12.4-5.7-29.9-17.1c-1.3-0.8-4.3-3.5-5-8.8c-4.6-34.3,4.5-148.9,4.5-148.9l7.2-149.1L685.5,1453.2z"/>
					<path class="st31" d="M638.4,1482.9c-3.3,0.9-8.4,122.4-11.2,127.8c-17.4,34.2-21.5,138-21.5,138l-5.1,14.8l-5.4,18.1
						c0,0,17.4,4.8,26.5-0.4l-1-17.9l-0.9-16.4l43.9-129.4l24-132L638.4,1482.9z"/>
					<path class="st29" d="M725.6,1247.4c-7.1-10-36.3-38.8-39.5-38.7c-9.5,0.2-40.5,0.2-46.6,3.4v6.8c0.2,30.4,4,60.6,11.7,90
						c5.3,20.5,10.4,42.4,9.7,50.2l0.1,0.1c18,17.9,46.3,16.4,62.7-3.1l0,0c0,0-0.1-21.8,2.5-41.6
						C730.3,1283.3,743.2,1272.1,725.6,1247.4z"/>
					<path class="st31" d="M676.6,1177.7c0,0,0.8,20.3-1,27.9c-1.8,7.7-4.1,8.3,11.1,10.6c6,0.9,11.7,2.3,11.7,2.3s-1.6-11.3-1.8-16
						c-0.4-7.8,1.8-32.1,1.8-32.1L676.6,1177.7z"/>
					<path class="st33" d="M688.2,1187.8c3.1,1.7,6,2.8,8.7,3.2c0.5-9.6,1.5-20.5,1.5-20.5l-20.8,6.9
						C680,1181.5,683.4,1185.2,688.2,1187.8z"/>
					<path class="st31" d="M681.4,1121c0,0-8.7,3.1-13.5,12.6s-6.6,36.4,12.3,46.9c9.3,5.2,20.1,6.2,25.2,1.6c5.2-4.7,4.5-15,4-23.6
						C708.4,1141.4,704.7,1115.6,681.4,1121z"/>
					<path class="st34" d="M667.5,1154.7c1.1,4.5-0.4,8.8-3.2,9.7s-6-2.1-7.1-6.6s0.4-8.8,3.2-9.7S666.4,1150.2,667.5,1154.7z"/>
					<path class="st29" d="M620.7,1763.3c-8,3.7-16.6,1.4-20,0.2l-5.6,18.2c0,0,17.5,5.2,26.6,0L620.7,1763.3z"/>
					<path class="st35" d="M628.3,1555.1L628.3,1555.1L628.3,1555.1z"/>
					<path class="st29" d="M709.7,1782.2h61c2.3-0.2,2.8-2.1,2-3.3c-1.6-2.4-8.7-4.2-16.7-8c-14,1.5-43.4-8.4-45.7-11.8
						C709,1765.8,708.4,1781.9,709.7,1782.2z"/>
					<path class="st31" d="M832.1,1293.4c1.2-1.6,5.1-9.7,5.1-9.7s4.1-13.8,3.2-13.6c-0.5,0.1-2.2,2.1-4.2,6.2
						c-1.2,2.5-2.6,7-3.8,9.2c-2.2,3.9-4.7,5.5-4.1,4c0.4-1.1,2-2,3.3-4.3c3.3-5.6,6.1-14.8,4.9-14.7c-1.1,0.2-4.3,6.5-7.7,11.4
						c-1.5,2.2-5.8,4.9-8.6,6.6c0-1.2,0.4-2.4,0.6-3c0.3-1.1,5.2-7.5,3.3-8.3s-13.4,13.1-13.4,13.1l-4.7,8.1l-0.4,0.3l0,0
						c0,0-57.5,22.5-59.4,21.9c-4.5-1.4-20-46.2-20-46.2l-32.2,5.8c-0.5-0.3,33.8,66.7,40.2,69.9c5.6,2.9,65.4-28.3,76.6-34.9
						c15.5-6,21.5-13,24-16.7c1.3-1.9,6.5-10.4,6.5-10.4s1.1-11.7,0.3-11.8c-2.8-0.3-3.6,10.7-3.6,10.7s-3.8,5.2-4.5,5.9
						C831.9,1294.8,832.1,1293.4,832.1,1293.4z"/>
					<path class="st32" d="M673.2,1235.5c-4.4,18.6,19,60.1,19,60.1s33.4-16.2,39.2-23.2c0,0-23-38-24.4-40.5
						c-3.1-5.4-13.9-16.4-21.2-14.4C681.2,1218.8,673.2,1235.5,673.2,1235.5z"/>
					<path class="st36" d="M678.5,1189.6c2.5-17.1,30.8-51.9,19.9-66.4c-8.8-11.8-24.3-8.2-34.1-4.9c-44.6,15.3-42,71.4-56.1,80.1
						c-25.5,15.9-41.2,25.8-43,61.6c-2.2,42.5,33.9,64.1,77.2,53.7c23.3-5.6,29.5-13.2,38.8-35.2c4.2-9.9,12.7-40.9,10.4-56
						C689.6,1209,676.5,1203.4,678.5,1189.6z"/>
					<path class="st31" d="M695.5,1158.3c0,5.1-1.8,9.2-4.1,9.2s-4.1-4.1-4.1-9.2s1.8-9.2,4.1-9.2
						C693.6,1149.2,695.5,1153.3,695.5,1158.3z"/>
					<path class="st37" d="M751.4,1545.1l2.1-83.9c0.4-23.7-4.3-47.2-13.7-68.8l-15.9-36.4c-6.4,2.1-12.5,3.9-19.2,4.7
						c-14.7,1.7-29.1,0-43.7-1.7c0,0.6-0.1,1.1-0.2,1.5c-2.6,12.4-17.4,39.9-23.6,77.5c-7,42.7-9.7,106.6-8.8,111.7
						C695.8,1552.8,711.9,1555.2,751.4,1545.1z"/>
				</g>
			</g>
		</g>
		<g>
			<g>
				<path class="st38" d="M3058.5,1127.8l50.7,50.7c0,0,96.6,37.8,107.4,61c10.8,23.2-9.7,22.1-32.4,18.9s-86.9-43.2-86.9-43.2
					l-58.8-68L3058.5,1127.8z"/>
				<path class="st30" d="M3207,1229.4l-12.6-4.5l-24.3,11.3c0,0-12.6,8.5-18.6,29.6c-6.1,21.1,0,147,10.1,167.2
					C3171.8,1453.2,3207,1229.4,3207,1229.4z"/>
				<path class="st31" d="M3286.7,1734.3c0,0,8.9,5.7,9.7,8.4c0.7,2.6,7.3,31.3,4.8,34.6c-2.4,3.3-11.4,1.7-7.9,4.1
					c2.6,1.8,19.6,3.2,30.4,0.3c3.2-0.9,1.7-27.6,2.2-31.7c0.7-5.9,4.8-19.3,2.3-22.8c-1.2-1.7-8.2-4.7-14.4-7.1
					c-6.6-2.6-13.9-9.8-13.9-9.8L3286.7,1734.3z"/>
				<path class="st36" d="M3313.2,1719.8c0,0-5.3,50.8-11.4,54.5c-1.6,1-10.3,1.7-11.1,5.9c0,0.1-0.2,4.3,2.4,4.4l32.9-0.1
					c0,0,0.3-25,0.1-34.7c0,0,4.5-25,3.1-26.8C3327.7,1721,3313.2,1719.8,3313.2,1719.8z"/>
				<path class="st31" d="M3415.5,1734.3c0,0,8.9,5.7,9.7,8.4c0.7,2.6,7.3,31.3,4.8,34.6c-2.5,3.3-11.4,1.7-7.9,4.1
					c2.6,1.8,19.6,3.2,30.4,0.3c3.2-0.9,1.7-27.6,2.2-31.7c0.7-5.9,4.8-19.3,2.3-22.8c-1.2-1.7-8.2-4.7-14.4-7.1
					c-6.6-2.6-13.9-9.8-13.9-9.8L3415.5,1734.3z"/>
				<path class="st32" d="M3253.9,1404.4c0,0,30.1,59.7,36.2,75.8l45.8,116.3l101.1,118.9c0,0-7.4,19.1-18.6,24.2
					c0,0-121.9-98.4-131.9-113.9c-15.3-23.6-84.9-168.4-84.9-168.4l-12.9-27.8L3253.9,1404.4z"/>
				<path class="st29" d="M3181.2,1403.8l0.5,50.9c0,0-21.8,166.4-17.5,176.3c10.3,24.1,123.4,105.8,123.4,105.8l15.4-26.5
					l-81.2-90.7l30.8-88.3c8.6-20.5,26.9-60.1,26.5-82.4c-0.4-19.1-38.2-63.2-38.2-63.2L3181.2,1403.8z"/>
				<path class="st38" d="M3227.3,1479.1c30-6.8,54.2-17.4,56.7-25.7c1.1-3.8-15.6-41.8-27.9-92.5c-4-16.6-3.3-32.1-9.7-90.2
					c-1.4-12.3-6.5-38.1-25.5-44.8c-6.7-2.3-10.4-2-10.4-2c-0.2,0-24.2,0.2-35.3,6.3c-2.7,3.7-12.9,23.9-15.6,79
					c-1.2,24-6,101.2-5,113.8c0.1,1.9,0.3,3.7,0.6,5.4C3159.5,1461.6,3194.6,1486.5,3227.3,1479.1z"/>
				<path class="st31" d="M3174.4,1267.8L3174.4,1267.8c12.3-1.4,43-41.6,43-41.6l-0.1-0.1l-19-30c0,0-27.9,5.1-22.5,13.6
					c5.5,8.5,8.5,28.9,8.5,28.9c-0.1,0.2-0.2,0.5-0.4,0.9C3182.2,1243.6,3175.9,1255.9,3174.4,1267.8z"/>
				<path class="st33" d="M3175.9,1209.7c-5.5-8.5,22.5-13.6,22.5-13.6l1.6,2.5c0,2.1-0.2,4-0.8,5.7c-3,8.5-10.3,16-17.8,19.6
					C3180,1218.6,3178.2,1213.1,3175.9,1209.7z"/>
				<g>
					<path class="st31" d="M3182.6,1148.6c0.6-0.6,21.8,34.2,16.7,48.6c-5.1,14.3-22.2,25.8-32.3,20.7c-11.2-5.7-28.2-45.6-18-62.5
						C3159.2,1138.4,3182.6,1148.6,3182.6,1148.6z"/>
					<path class="st29" d="M3152,1133c12.5-2.7,34.7,1,47.3,9.8c15.4,10.8,15.9,30.1,9,42.7s-2.8,21.8-2.8,21.8s-21.7-1.4-26-16.1
						c-1.8-6.2,0.4-10.4-3.7-13.9c-3.2-2.7-5.9-10.5-9.1-16.8c0,0-14-7.4-19.3-1.3C3145.5,1161.3,3136,1136.4,3152,1133z"/>
					<path class="st31" d="M3173.5,1180c1.9,4.5,5.6,7.3,8.2,6.2c2.6-1.1,3.3-5.7,1.4-10.2c-1.9-4.5-5.6-7.3-8.2-6.2
						C3172.2,1170.9,3171.6,1175.5,3173.5,1180z"/>
				</g>
				<path class="st36" d="M3442.1,1719.9c0,0-5.4,50.7-11.6,54.4c-1.6,1-10.3,1.7-11.1,5.9c0,0.1-0.3,4.4,2.4,4.3l32.9-0.1
					c0,0,0.4-25,0.2-34.7c0,0,4.5-25,3.1-26.8C3456.4,1721,3442.1,1719.9,3442.1,1719.9z"/>
			</g>
			<g>
				<g>
					<path class="st29" d="M2715.4,1485.6c-26.1-54.6-33.3-136.2-4.8-200.8c48-109.2,180-153.7,170.3-277.4
						c-2.4-31.2-16.3-56.2-36.7-72.4c-53.7-42.4-140.2-20-201.9,9.7c-39.4,18.9-76,45.8-109.8,80.6l-17.2-218.5
						c74.1-52.6,163.7-80.1,253.2-87.1c183.3-14.4,324.9,54.4,339.3,237.8c13.1,167.3-99.9,241.4-175.7,325
						c-42.1,46.4-51.6,82.2-48.3,123.6c1.7,21.4,9.7,47.8,22.6,64.7L2715.4,1485.6z M2847.1,1784.4
						c-178.2,14-198.9-225.4-18.8-239.6C3005.6,1530.9,3024.6,1770.4,2847.1,1784.4z"/>
				</g>
			</g>
			<path class="st31" d="M3031.3,1138.8c-0.3-1.5,0.9-0.3-1.4-12.1c-0.7-3.4-2.8-7-4.4-8.9c-0.9-1-2.8-2.8-4-3.5
				c-2-1.2-3.6,0.8-3.2,1.9c0.4,1.1,2.5,5,2.9,6.1s0.6,3.9-0.3,4.8c-0.9,0.9-15.7-16-16.6-17.5c-0.8-1.3-2.5-6.8-2.5-6.8
				s-1.3-4-2.9-3c-1,0.7-2.2,4,0.8,10.5c2.6,5.7,6.2,10.2,5.8,10.5c-1.1,0.9-7.5-6.8-7.5-6.8s-2.2-4.3-3.8-5.8c-1-2.8-2.7-6.4-4.5-5
				c-0.3,0.3,0.9,6.3,0.9,6.3s2.2,4,3.2,6c1.7,3.5,5.5,7.7,6.8,10c1.1,1.9,0,1.4-0.1,1.7c-0.1,0.2-1.7-1.9-4.2-5
				c-1.3-1.6-3-3-4.2-5.1c-1.1-1.9-3-4.2-4.2-5.7c-3.3-4-5.1-1.3-2.6,2.9c1,1.6,2,3.3,3.1,5.1c4.2,6.8,9.4,12.1,8.9,12.7
				c-0.7,0.8-9.6-9.4-9.6-9.4s-6.3-4.2-2.5,2c4.3,7.2,9,11.7,9.3,11.9c1.5,1.3,5.4,7.4,11.2,11c5.8,3.7,15.2,9.3,15.2,9.3
				c1.1,1.3,3.8,5.5,7.6,11.5l14.1-16.9C3037.7,1146.4,3031.6,1139.9,3031.3,1138.8z"/>
			<path class="st2" d="M3020.3,1162.7l19.4-17l66.7,65.9c0,0,103.3,9.1,103.6,9.1l4.1,1.3c37.5,12.9,22,43.5,14.8,48.3
				c-16.8,11-110.2,4.4-140.2-14.1C3064.2,1240.8,3020.3,1162.7,3020.3,1162.7z"/>
		</g>
		<g>
			<path class="st31" d="M932.8,1254c0.7,2.7,1.2,3.6,2.1,5.5c6.1,11.9,20.3,28.8,20.3,28.8l11-26.3c0,0-1.8-8.3-4.9-20.1
				C950.7,1244.8,940.6,1246.5,932.8,1254z"/>
			<path class="st39" d="M995.6,1231.2c0,0-61.1,28.1-63.1,27.5c-1.3-0.3-25.1-42.9-25.3-82.8c-0.1-18.5,17.8-40.7,37.9-36.3
				c10.1,2.2,9.9,5.2,24.9,28.4C984.9,1191.1,995.6,1231.2,995.6,1231.2z"/>
			<path class="st31" d="M1047.8,1734.7c0,0-1.5,25.6-1.5,25.7c-0.5,3.3-2.6,11.3-2.6,14.2c0,11.1,49.4-9.4,38.3-14.4
				c-1-0.4-6.3-3.8-6.6-7.6c-0.5-5.8-1.8-17.6-1.8-17.6L1047.8,1734.7z"/>
			<path class="st2" d="M1081.9,1760.2c0,0-11.6,3.4-17.5,4.2c-5.9,0.8-13.8-6.3-18-4.4c-4.6,2.1-4.4,21.3-4.4,21.3
				s62.2,5.4,79.7-0.2C1128.6,1778.9,1105.6,1768.1,1081.9,1760.2z"/>
			<path class="st31" d="M946.7,1734.7c0,0-1.5,25.6-1.5,25.7c-0.5,3.3-2.6,11.3-2.6,14.2c0,11.1,49.4-9.4,38.3-14.4
				c-1-0.4-7.8-6.3-8.1-10.1c-0.5-5.8-0.2-15.1-0.2-15.1L946.7,1734.7z"/>
			<path class="st2" d="M980.8,1760.2c0,0-11.6,3.4-17.5,4.2c-5.9,0.8-13.8-6.3-18-4.4c-4.6,2.1-4.8,21.3-4.8,21.3
				s62.5,6.4,80.1-0.2C1027.4,1778.6,1004.5,1768.1,980.8,1760.2z"/>
			<g>
				<path class="st31" d="M961.8,1268.2l43.5-65.1c0.2-0.6,0.6-1.7,1.2-3.5c2.2-6.5,6.8-19.9,10.7-33.3v-0.1
					c1.2-4.7,3.9-12.8,6.5-20.7c2.8-8.8,6.4-19.6,6.5-21.5c-0.1-0.3-0.3-0.9-0.6-1.6c-1.6-4.4-3.8-15-4.5-19.5c-0.5-2.9-1-10,2.3-10
					c5.1,0,2.7,7.1,5,11.5c0.9-3,2.6-8.8,3.5-14.7l0.9-13.8c0.2-1-0.9-8.7,2.7-8.7h0.2c3.2,0.3,3.1,8.4,4.5,22.1
					c0.4-1.6,0.8-3.5,1.2-5.2c0-0.9,0.6-5.1,1.1-7.2c-0.6-3.8-0.3-9.9,3.5-9.3c1.9,0.3,1.8,8.7,1.8,8.7c0,1.2-0.1,10.1-0.1,11.8
					c0.4-3,1.9-15.7,4.9-15.7c2.5,0,2.7,3.4,2.6,6.1c0,1.6-1.6,15.4-1.7,17c1.2-2.1,2.6-14.3,3.7-14.3c4.8,0,3.1,17.3,1.3,21.8
					c-0.2,0.5-0.3,1.4-0.6,2.4c-0.6,3.1-1.6,8.2-4.2,12.9c-3,5.5-7.2,14.4-7.9,15.7c-0.5,2.8-1.9,12.7-3.8,25.1
					c-0.8,5.3-1.6,11.2-2.5,17.2l0,0c-0.2,1.3-1.1,5.5-4.5,21.1c-4.7,21.4-5.2,22.3-5.4,22.7c-2,3.9-49,71.9-51,74.8l-1.2,1.7
					L961.8,1268.2z"/>
				<path class="st33" d="M1042.7,1116.4c0,0-3.5-9.6-9.8-9.7c0,0,3.5-1.4,6.5,1.2C1042.5,1110.5,1042.7,1116.4,1042.7,1116.4z"/>
			</g>
			<g>
				<path class="st31" d="M951.3,1097.8l-5.6,37.8c0,0,21.3,18.3,33.8,14.4c10.4-3.2,3.3-17.8,3.3-17.8s-5.6-20.2-3.9-30.8
					C980.6,1090.9,951.3,1097.8,951.3,1097.8z"/>
				<path class="st33" d="M955.3,1109.2c5.4,2.7,15.9,6.4,24.2,7.3c-0.8-5.3-1.2-10.9-0.6-15c0.8-4.9-5-6-11.5-5.9
					c-8.5,0.8-16.1,2.2-16.1,2.2l-1.1,7.3C951.8,1106.9,953.5,1108.4,955.3,1109.2z"/>
				<path class="st31" d="M924.3,1054.2c-0.9,0,8.4,42.2,22.9,49.5c14.4,7.3,35.9,3.5,40-7.9c4.5-12.6-11.8-55.7-32.1-61.2
					S924.3,1054.2,924.3,1054.2z"/>
				<path class="st36" d="M941,1015.4c-11.5,7.1-16.8,17.6-18.6,21.9c-5.4,2.7-12,8.7-15.1,24.6c-3.9,19.6,9.9,34.8,24.4,39.3
					c14.6,4.6,17,14.8,17,14.8l1.4-11.1c0,0-3.2-9.6-8.1-14.5c-4.9-4.8,2.3-11.8,2.9-17.6c0.5-4.4-2.6-13-1.9-20.2
					c0,0,8.1-13.1,16.1-16.3C972.8,1030.9,955.8,1006.3,941,1015.4z"/>
				<path class="st31" d="M947.1,1080.3c1.9,4.9,1.1,9.7-1.7,10.8s-6.7-2-8.5-6.8c-1.9-4.9-1.1-9.7,1.7-10.8
					C941.4,1072.4,945.3,1075.4,947.1,1080.3z"/>
			</g>
			<path class="st31" d="M1000.9,1269.3l84-14.6c0,0-9.6-25.7-13-25.7s-63.5,28-63.5,28l-4.8,10.2L1000.9,1269.3z"/>
			<path class="st36" d="M957.9,1330.7c0,0-8.4,43.2-5,76s3.7,149.2,3.7,149.2l-13,186.2l30.9,0.7c0,0,36.6-186.1,36-181.4
				c-0.7,4.8,12.3-131.1,12.3-131.1l-43.7-103.8L957.9,1330.7z"/>
			<path class="st37" d="M966.1,1328.6c0,0-5.5,38.9,1.4,56c6.8,17.1,58.5,184.5,59.2,198.2s17.9,164.5,17.9,164.5l35.9-1.1
				l7.8-167.8l-16.3-210.9l-15.8-53.3L966.1,1328.6z"/>
			<path class="st31" d="M945.7,1135.6c0,0,8.9,6.2,17.1,5.5c8.3-0.7,20-8.9,20-8.9l-1.6-5.9c0,0-21.4-3.3-21.9-3
				C958.7,1123.8,945.7,1135.6,945.7,1135.6z"/>
			<path class="st31" d="M1040.1,1227.7c0,0,31.8,32,46.1,26.5s20.3-24.1-14.7-51.4C1040.2,1178.4,1040.1,1227.7,1040.1,1227.7z"/>
			<path class="st30" d="M1061.6,1267.2c-4.7-27.4-38.9-112.6-41.6-128.3c-1.3-7.6-19.8-7.8-37.3-6.8c-18.6,1.1-37,3.6-37,3.6
				s-16.4,2.9-23.7,10.1c-7.2,7.2-9.1,27.2,1.2,65.2c8.2,29.9,18.4,46.4,23.4,68.2c1,7.3,1.9,14.5,3,23c1.8,32.6,0,75.7,0,75.7
				s89.4,19.8,122.9-10.2C1072.5,1367.6,1066.5,1295.3,1061.6,1267.2z"/>
			<path class="st39" d="M1084.4,1208.3c0,0-35.1,30.9-37.1,30.9c-1.3,0-50.1-38.3-61.3-69.7c-6.2-17.4,6.8-36.8,21.7-36.8
				c10.3,0,14.9,2.9,35.4,21.3C1063.6,1172.5,1084.4,1208.3,1084.4,1208.3z"/>
		</g>
		<g>
			<path class="st29" d="M3012.4,598.6l-76.1,51.5c-7.7,5.2-18.2,3.2-23.4-4.5l-51.5-76.1c-5.2-7.7-3.2-18.2,4.5-23.4l76.1-51.5
				c7.7-5.2,18.2-3.2,23.4,4.5l51.5,76.1C3022.1,582.9,3020.1,593.4,3012.4,598.6z"/>
			<path class="st30" d="M2974.1,544.7c13.3,19.7,8.2,46.5-11.5,59.8s-46.5,8.2-59.8-11.5s-8.2-46.5,11.5-59.8
				C2934.1,519.8,2960.8,525,2974.1,544.7z"/>
			<path class="st29" d="M2924.3,551.1l17.7,19.3c1.3,1.4,1.2,3.6-0.2,4.9s-3.6,1.2-4.9-0.2c-0.2-0.2-0.4-0.5-0.5-0.7L2924.3,551.1z
				"/>
			<path class="st29" d="M2937.8,570.5l26.6-14.9l-23.2,19.8c-1.3,1.1-3.1,0.9-4.2-0.3c-1.1-1.3-0.9-3.1,0.3-4.2
				C2937.4,570.7,2937.6,570.6,2937.8,570.5z"/>
		</g>
		<path class="st30" d="M870.9,995.5H716.8c-27.8,0-50.3-22.5-50.3-50.3v-31.9c0-27.8,22.5-50.3,50.3-50.3h154.1
			c27.8,0,50.3,22.5,50.3,50.3v31.9C921.2,973,898.7,995.5,870.9,995.5z"/>
		<polygon class="st30" points="874.3,984.7 937,1012.8 895,954 		"/>
		<g>
			<path class="st2" d="M764.6,935.2c0,5.4-4.9,9.8-11,9.8s-11-4.4-11-9.8c0-5.4,4.9-9.8,11-9.8S764.6,929.8,764.6,935.2z"/>
			<path class="st2" d="M815.7,935.2c0,5.4-4.9,9.8-11,9.8s-11-4.4-11-9.8c0-5.4,4.9-9.8,11-9.8S815.7,929.8,815.7,935.2z"/>
			<path class="st2" d="M866.8,935.2c0,5.4-4.9,9.8-11,9.8s-11-4.4-11-9.8c0-5.4,4.9-9.8,11-9.8
				C861.9,925.4,866.8,929.8,866.8,935.2z"/>
		</g>
		<g>
			<polygon class="st27" points="2837,496.6 2826.7,474.6 2835.3,470.6 2841.1,483.1 2855.4,474.4 2860.4,482.5 			"/>
		</g>
		<g>
			<polygon class="st29" points="2252,813.6 2229.1,821.8 2225.9,812.8 2238.9,808.2 2231.6,793.1 2240.2,789 			"/>
		</g>
		<g>
			<path class="st30" d="M3202,591.6c1.7,5.4,3.4,10.9,5.1,16.3c1.3,4.2,2.3,11.1,6.5,13.6c1,0.6,2.7,0.3,3.3-0.9
				c2.1-4.5-0.9-10.3-2.3-14.7c-1.7-5.4-3.5-10.8-5.2-16.3C3207.8,585,3200.5,587,3202,591.6L3202,591.6z"/>
		</g>
		<g>
			<path class="st30" d="M3259.4,585.8c-8.8,30-8.9,29.1-8.2,32.2c0.5,2.4,3.8,3.1,5.4,1.4c2.1-2.1,1.5-1.5,10-31.6
				C3267.9,583.1,3260.8,581.2,3259.4,585.8L3259.4,585.8z"/>
		</g>
		<g>
			<path class="st30" d="M3293,652.6c5.2-2.5,10.4-5,15.5-7.5c4.6-2.2,10.6-4,13.7-8.2c1.4-1.8-0.5-4.3-2.5-4.3
				c-5.1-0.2-10.6,3.8-15,5.9c-5.2,2.5-10.3,5-15.5,7.5C3284.8,648.2,3288.6,654.6,3293,652.6L3293,652.6z"/>
		</g>
		<g>
			<path class="st30" d="M3276,742.7c5.3,6.9,10.6,13.9,16.7,20.1c3.2,3.4,7.9-1.6,5.1-5.1c-5.6-6.7-11.3-13.2-16.7-20.1
				C3278.2,734.1,3273.2,739.2,3276,742.7L3276,742.7z"/>
		</g>
		<g>
			<path class="st30" d="M3295.5,707.7c4.8,2.1,9.7,4.1,14.5,6c4.5,1.7,9.7,4.9,14.6,4.2c2.6-0.4,2.9-3.8,1.4-5.4
				c-1.8-2-2.8-1.8-13.4-5.9c-4.8-1.8-9.5-3.8-14.3-5.6C3294.5,699.6,3291.7,706,3295.5,707.7L3295.5,707.7z"/>
		</g>
	</g>
</g>
<g>
	<g>
		<g>
			<g>
				<defs>
					<rect id="SVGID_3_" x="972.6" y="-1087.4" width="5036.9" height="2625.7"/>
				</defs>
				<clipPath id="SVGID_2_">
					<use xlink:href="#SVGID_3_"  style="overflow:visible;"/>
				</clipPath>
				<path class="st40" d="M2206.3,1230.9c21.8-15.8,40.7-18.3,49.1-6.7c7.1,10.4,4.2,17.5-9.7,22.5c-9.7,3.3-17.6,3.7-42,2.1
					l-16.4-1.2l4.6-5C2195,1239.6,2201.3,1234.6,2206.3,1230.9z M2020.4,1153.4c1.3,2.5,5,12.5,8.4,21.2
					c6.7,17.9,10.1,23.7,12.6,20.8c1.7-2.1-5-24.6-11.3-38.3c-1.3-2.9-2.1-5.4-1.3-5.4c0.8,0,11.8,10,24.3,22.1
					c33.6,31.7,78.9,62.5,107.5,72.5l13.9,5l-4.2,6.7c-23.5,38.3,5,75.4,63.4,81.2c14.7,1.7,44.1,0.8,58.8-1.2c5.5-0.8,9.7,0,13,1.7
					c16.8,9.6,31.5-12.5,15.1-22.9c-10.1-6.2-20.1-2.9-22.2,7.5c-1.3,6.7-1.3,6.7-31.1,7.9c-33.6,1.7-60.4-3.7-78.1-15.4
					c-9.2-6.2-18.9-19.2-20.1-27.5c-0.8-6.2,3.8-21.7,8.8-30l3.4-5.8l13.9,1.7c46.6,6.7,74.3-2.5,70.9-23.7
					c-2.5-18.3-21-27.5-40.7-20c-10.9,4.2-32.7,18.7-40.3,27.1l-5.5,6.2l-13.4-4.6c-31.1-10.4-75.1-39.6-111.2-73.7l-10.1-9.6
					l6.3,0.4c19.3,1.7,26-5,8-7.9c-5.5-0.8-16.4-3.7-23.9-6.2C2017.4,1137.6,2013.6,1139.7,2020.4,1153.4z"/>
			</g>
		</g>
	</g>
</g>
<g>
	<g>
		<g>
			<g>
				<defs>
					
						<rect id="SVGID_1_" x="475.9" y="516.2" transform="matrix(1 -6.801819e-03 6.801819e-03 1 -9.7419 12.443)" width="2697.1" height="1844.4"/>
				</defs>
				<clipPath id="SVGID_4_">
					<use xlink:href="#SVGID_1_"  style="overflow:visible;"/>
				</clipPath>
				<path class="st41" d="M1630.5,894.7c0.2-1.8,0.8-7.6,1.3-13.5c0.6-7.6,1.7-12.6,3.7-18.5c3.5-9.7,3.7-12.6,0.8-11.7
					c-2.7,0.6-7.3,10-9.3,20.3l-1.5,7.9l-3.2-14.9c-4.4-19.9-4.3-31.3,0.4-43.9c3.8-10.3,7.3-14.4,21.9-25c5.8-4.4,13-10,15.6-13
					c12.3-12.7,25.1-37.9,27.7-54.9c1.5-9.1,0.4-33.7-1.6-43.3c-4.9-23.4-11.7-38.8-23.3-54.3c-5.4-7-8.6-12.2-8.6-14
					c0-3.5-4.3-7.9-7.5-7.8c-3.6,0-6.9,5.3-6.9,11.2c0,6.4,1.6,8.2,7.5,7.6c4.5-0.6,4.7-0.3,9.3,5.8c10.7,13.7,16.8,27.4,22.4,49
					c2.8,10.5,3.3,15.2,3.8,27.8c0.5,13.2,0.3,16.4-1.4,24.3c-2.4,11.1-9.3,24.9-18.2,36.7c-6.2,8.5-9.6,11.5-27.3,24.5
					c-13.6,10-19.9,21.2-21.8,39.6c-1.3,11.1-0.3,18.1,4.3,35.4c1.6,6.1,2.8,11.1,2.8,11.4c-0.2,0.3-1.8-0.9-3.8-2.6
					c-4.1-3.5-11.5-6.4-13.7-5.2c-2.5,1.2-1.1,2.6,6.6,7.6c4.7,2.9,8.6,6.4,11.8,10.7C1626.2,897.9,1629.6,899.4,1630.5,894.7z"/>
			</g>
		</g>
	</g>
</g>
</svg>
